STARTFONT 2.1
COMMENT This font was automatically resized by bdfresize-1.5
COMMENT   mag_x = 3/1, mag_y = 3/1, blackness = 4
COMMENT Copyright (c) 2011,  Aaron Christianson  ninjaaron@gmail.com
COMMENT licenced under the OFL 1.1
FONT -aaron-bitocra13-Medium-R-Normal--39-390-84-84-C-270-ISO8859-1
SIZE 39 84 84
FONTBOUNDINGBOX 21 39 0 -6
STARTPROPERTIES 20
POINT_SIZE 390
PIXEL_SIZE 39
RESOLUTION_X 84
SLANT "R"
RESOLUTION_Y 84
FONT_ASCENT 33
FONT_DESCENT 6
AVERAGE_WIDTH 270
SPACING "C"
FOUNDRY "aaron"
FAMILY_NAME "bitocra13"
COPYRIGHT "OLF 1.1 Aaron Christianson, 2011"
FACE_NAME "bitocra13"
WEIGHT_NAME "Medium"
SETWIDTH_NAME "Normal"
ADD_STYLE_NAME ""
CHARSET_REGISTRY "ISO8859"
CHARSET_ENCODING "1"
_GBDFED_INFO "Edited with gbdfed 1.6."
QUAD_WIDTH 7
ENDPROPERTIES
CHARS 189
STARTCHAR char32
ENCODING 32
SWIDTH 1383 0
DWIDTH 21 0
BBX 21 39 0 -6
BITMAP
000000
000000
000000
000000
000000
000000
000000
000000
000000
000000
000000
000000
000000
000000
000000
000000
000000
000000
000000
000000
000000
000000
000000
000000
000000
000000
000000
000000
000000
000000
000000
000000
000000
000000
000000
000000
000000
000000
000000
ENDCHAR
STARTCHAR char33
ENCODING 33
SWIDTH 1383 0
DWIDTH 21 0
BBX 21 39 0 -6
BITMAP
000000
000000
000000
000000
000000
000000
000000
000000
000000
038000
038000
038000
038000
038000
038000
038000
038000
038000
038000
038000
038000
038000
038000
038000
000000
000000
000000
038000
038000
038000
038000
038000
038000
000000
000000
000000
000000
000000
000000
ENDCHAR
STARTCHAR char34
ENCODING 34
SWIDTH 1383 0
DWIDTH 21 0
BBX 21 39 0 -6
BITMAP
000000
000000
000000
000000
000000
000000
1C7000
1C7000
1C7000
1C7000
1C7000
1C7000
1C7000
1C7000
1C7000
000000
000000
000000
000000
000000
000000
000000
000000
000000
000000
000000
000000
000000
000000
000000
000000
000000
000000
000000
000000
000000
000000
000000
000000
ENDCHAR
STARTCHAR char35
ENCODING 35
SWIDTH 1383 0
DWIDTH 21 0
BBX 21 39 0 -6
BITMAP
000000
000000
000000
000000
000000
000000
000000
000000
000000
000000
000000
000000
000000
000000
000000
1C7000
1C7000
1C7000
FFFE00
FFFE00
FFFE00
1C7000
1C7000
1C7000
FFFE00
FFFE00
FFFE00
1C7000
1C7000
1C7000
000000
000000
000000
000000
000000
000000
000000
000000
000000
ENDCHAR
STARTCHAR char36
ENCODING 36
SWIDTH 1383 0
DWIDTH 21 0
BBX 21 39 0 -6
BITMAP
000000
000000
000000
000000
000000
000000
000000
000000
000000
000000
000000
000000
038000
038000
038000
FFFE00
FFFE00
FFFE00
E38000
E38000
E38000
FFFE00
FFFE00
FFFE00
038E00
038E00
038E00
FFFE00
FFFE00
FFFE00
038000
038000
038000
000000
000000
000000
000000
000000
000000
ENDCHAR
STARTCHAR char37
ENCODING 37
SWIDTH 1383 0
DWIDTH 21 0
BBX 21 39 0 -6
BITMAP
000000
000000
000000
000000
000000
000000
000000
000000
000000
000000
000000
000000
000000
000000
000000
FC0E00
FC0E00
FC0E00
FC7E00
FC7E00
FC7E00
03F000
03F000
03F000
1F8000
1F8000
1F8000
FC7E00
FC7E00
FC7E00
E07E00
E07E00
E07E00
000000
000000
000000
000000
000000
000000
ENDCHAR
STARTCHAR char38
ENCODING 38
SWIDTH 1383 0
DWIDTH 21 0
BBX 21 39 0 -6
BITMAP
000000
000000
000000
000000
000000
000000
000000
000000
000000
1FF000
1FF000
1FF000
E00000
E00000
E00000
1C0000
1C0000
1C0000
E38000
E38000
E38000
E071C0
E071C0
E071C0
E00E00
E00E00
E00E00
E00E00
E00E00
E00E00
1FF1C0
1FF1C0
1FF1C0
000000
000000
000000
000000
000000
000000
ENDCHAR
STARTCHAR char39
ENCODING 39
SWIDTH 1383 0
DWIDTH 21 0
BBX 21 39 0 -6
BITMAP
000000
000000
000000
000000
000000
000000
007000
007000
007000
03F000
03F000
03F000
038000
038000
038000
000000
000000
000000
000000
000000
000000
000000
000000
000000
000000
000000
000000
000000
000000
000000
000000
000000
000000
000000
000000
000000
000000
000000
000000
ENDCHAR
STARTCHAR char40
ENCODING 40
SWIDTH 1383 0
DWIDTH 21 0
BBX 21 39 0 -6
BITMAP
000000
000000
000000
000000
000000
000000
007000
007000
007000
038000
038000
038000
1C0000
1C0000
1C0000
1C0000
1C0000
1C0000
1C0000
1C0000
1C0000
1C0000
1C0000
1C0000
1C0000
1C0000
1C0000
1C0000
1C0000
1C0000
038000
038000
038000
007000
007000
007000
000000
000000
000000
ENDCHAR
STARTCHAR char41
ENCODING 41
SWIDTH 1383 0
DWIDTH 21 0
BBX 21 39 0 -6
BITMAP
000000
000000
000000
000000
000000
000000
1C0000
1C0000
1C0000
038000
038000
038000
007000
007000
007000
007000
007000
007000
007000
007000
007000
007000
007000
007000
007000
007000
007000
007000
007000
007000
038000
038000
038000
1C0000
1C0000
1C0000
000000
000000
000000
ENDCHAR
STARTCHAR char42
ENCODING 42
SWIDTH 1383 0
DWIDTH 21 0
BBX 21 39 0 -6
BITMAP
000000
000000
000000
000000
000000
000000
000000
000000
000000
000000
000000
000000
038000
038000
038000
E38E00
E38E00
E38E00
1FF000
1FF000
1FF000
1FF000
1FF000
1FF000
E38E00
E38E00
E38E00
038000
038000
038000
000000
000000
000000
000000
000000
000000
000000
000000
000000
ENDCHAR
STARTCHAR char43
ENCODING 43
SWIDTH 1383 0
DWIDTH 21 0
BBX 21 39 0 -6
BITMAP
000000
000000
000000
000000
000000
000000
000000
000000
000000
000000
000000
000000
000000
000000
000000
038000
038000
038000
038000
038000
038000
FFFE00
FFFE00
FFFE00
038000
038000
038000
038000
038000
038000
000000
000000
000000
000000
000000
000000
000000
000000
000000
ENDCHAR
STARTCHAR char44
ENCODING 44
SWIDTH 1383 0
DWIDTH 21 0
BBX 21 39 0 -6
BITMAP
000000
000000
000000
000000
000000
000000
000000
000000
000000
000000
000000
000000
000000
000000
000000
000000
000000
000000
000000
000000
000000
000000
000000
000000
000000
000000
000000
1FF000
1FF000
1FF000
007000
007000
007000
007000
007000
007000
007000
007000
007000
ENDCHAR
STARTCHAR char45
ENCODING 45
SWIDTH 1383 0
DWIDTH 21 0
BBX 21 39 0 -6
BITMAP
000000
000000
000000
000000
000000
000000
000000
000000
000000
000000
000000
000000
000000
000000
000000
000000
000000
000000
000000
000000
000000
FFFE00
FFFE00
FFFE00
000000
000000
000000
000000
000000
000000
000000
000000
000000
000000
000000
000000
000000
000000
000000
ENDCHAR
STARTCHAR char46
ENCODING 46
SWIDTH 1383 0
DWIDTH 21 0
BBX 21 39 0 -6
BITMAP
000000
000000
000000
000000
000000
000000
000000
000000
000000
000000
000000
000000
000000
000000
000000
000000
000000
000000
000000
000000
000000
000000
000000
000000
000000
000000
000000
03F000
03F000
03F000
03F000
03F000
03F000
000000
000000
000000
000000
000000
000000
ENDCHAR
STARTCHAR char47
ENCODING 47
SWIDTH 1383 0
DWIDTH 21 0
BBX 21 39 0 -6
BITMAP
000000
000000
000000
000000
000000
000000
000E00
000E00
000E00
000E00
000E00
000E00
007000
007000
007000
007000
007000
007000
038000
038000
038000
038000
038000
038000
1C0000
1C0000
1C0000
1C0000
1C0000
1C0000
E00000
E00000
E00000
E00000
E00000
E00000
000000
000000
000000
ENDCHAR
STARTCHAR char48
ENCODING 48
SWIDTH 1383 0
DWIDTH 21 0
BBX 21 39 0 -6
BITMAP
000000
000000
000000
000000
000000
000000
000000
000000
000000
FFFE00
FFFE00
FFFE00
E00E00
E00E00
E00E00
E00E00
E00E00
E00E00
E38E00
E38E00
E38E00
E38E00
E38E00
E38E00
E00E00
E00E00
E00E00
E00E00
E00E00
E00E00
FFFE00
FFFE00
FFFE00
000000
000000
000000
000000
000000
000000
ENDCHAR
STARTCHAR char49
ENCODING 49
SWIDTH 1383 0
DWIDTH 21 0
BBX 21 39 0 -6
BITMAP
000000
000000
000000
000000
000000
000000
000000
000000
000000
1F8000
1F8000
1F8000
038000
038000
038000
038000
038000
038000
038000
038000
038000
038000
038000
038000
038E00
038E00
038E00
038E00
038E00
038E00
1FFE00
1FFE00
1FFE00
000000
000000
000000
000000
000000
000000
ENDCHAR
STARTCHAR char50
ENCODING 50
SWIDTH 1383 0
DWIDTH 21 0
BBX 21 39 0 -6
BITMAP
000000
000000
000000
000000
000000
000000
000000
000000
000000
FFFE00
FFFE00
FFFE00
000E00
000E00
000E00
000E00
000E00
000E00
FFFE00
FFFE00
FFFE00
E00000
E00000
E00000
E00000
E00000
E00000
E00000
E00000
E00000
FFFE00
FFFE00
FFFE00
000000
000000
000000
000000
000000
000000
ENDCHAR
STARTCHAR char51
ENCODING 51
SWIDTH 1383 0
DWIDTH 21 0
BBX 21 39 0 -6
BITMAP
000000
000000
000000
000000
000000
000000
000000
000000
000000
FFFE00
FFFE00
FFFE00
000E00
000E00
000E00
000E00
000E00
000E00
1FFE00
1FFE00
1FFE00
000E00
000E00
000E00
000E00
000E00
000E00
000E00
000E00
000E00
FFFE00
FFFE00
FFFE00
000000
000000
000000
000000
000000
000000
ENDCHAR
STARTCHAR char52
ENCODING 52
SWIDTH 1383 0
DWIDTH 21 0
BBX 21 39 0 -6
BITMAP
000000
000000
000000
000000
000000
000000
000000
000000
000000
E00000
E00000
E00000
E07000
E07000
E07000
E07000
E07000
E07000
E07000
E07000
E07000
FFFE00
FFFE00
FFFE00
007000
007000
007000
007000
007000
007000
007000
007000
007000
000000
000000
000000
000000
000000
000000
ENDCHAR
STARTCHAR char53
ENCODING 53
SWIDTH 1383 0
DWIDTH 21 0
BBX 21 39 0 -6
BITMAP
000000
000000
000000
000000
000000
000000
000000
000000
000000
FFFE00
FFFE00
FFFE00
E00000
E00000
E00000
E00000
E00000
E00000
FFFE00
FFFE00
FFFE00
000E00
000E00
000E00
000E00
000E00
000E00
000E00
000E00
000E00
FFFE00
FFFE00
FFFE00
000000
000000
000000
000000
000000
000000
ENDCHAR
STARTCHAR char54
ENCODING 54
SWIDTH 1383 0
DWIDTH 21 0
BBX 21 39 0 -6
BITMAP
000000
000000
000000
000000
000000
000000
000000
000000
000000
FF8000
FF8000
FF8000
E00000
E00000
E00000
E00000
E00000
E00000
E00000
E00000
E00000
FFFE00
FFFE00
FFFE00
E00E00
E00E00
E00E00
E00E00
E00E00
E00E00
FFFE00
FFFE00
FFFE00
000000
000000
000000
000000
000000
000000
ENDCHAR
STARTCHAR char55
ENCODING 55
SWIDTH 1383 0
DWIDTH 21 0
BBX 21 39 0 -6
BITMAP
000000
000000
000000
000000
000000
000000
000000
000000
000000
FFFE00
FFFE00
FFFE00
000E00
000E00
000E00
000E00
000E00
000E00
007E00
007E00
007E00
03F000
03F000
03F000
1F8000
1F8000
1F8000
1C0000
1C0000
1C0000
1C0000
1C0000
1C0000
000000
000000
000000
000000
000000
000000
ENDCHAR
STARTCHAR char56
ENCODING 56
SWIDTH 1383 0
DWIDTH 21 0
BBX 21 39 0 -6
BITMAP
000000
000000
000000
000000
000000
000000
000000
000000
000000
1FFE00
1FFE00
1FFE00
1C0E00
1C0E00
1C0E00
1C0E00
1C0E00
1C0E00
FFFE00
FFFE00
FFFE00
E00E00
E00E00
E00E00
E00E00
E00E00
E00E00
E00E00
E00E00
E00E00
FFFE00
FFFE00
FFFE00
000000
000000
000000
000000
000000
000000
ENDCHAR
STARTCHAR char57
ENCODING 57
SWIDTH 1383 0
DWIDTH 21 0
BBX 21 39 0 -6
BITMAP
000000
000000
000000
000000
000000
000000
000000
000000
000000
FFFE00
FFFE00
FFFE00
E00E00
E00E00
E00E00
E00E00
E00E00
E00E00
FFFE00
FFFE00
FFFE00
000E00
000E00
000E00
000E00
000E00
000E00
000E00
000E00
000E00
03FE00
03FE00
03FE00
000000
000000
000000
000000
000000
000000
ENDCHAR
STARTCHAR char58
ENCODING 58
SWIDTH 1383 0
DWIDTH 21 0
BBX 21 39 0 -6
BITMAP
000000
000000
000000
000000
000000
000000
000000
000000
000000
000000
000000
000000
000000
000000
000000
03F000
03F000
03F000
03F000
03F000
03F000
000000
000000
000000
000000
000000
000000
03F000
03F000
03F000
03F000
03F000
03F000
000000
000000
000000
000000
000000
000000
ENDCHAR
STARTCHAR char59
ENCODING 59
SWIDTH 1383 0
DWIDTH 21 0
BBX 21 39 0 -6
BITMAP
000000
000000
000000
000000
000000
000000
000000
000000
000000
000000
000000
000000
000000
000000
000000
1F8000
1F8000
1F8000
1F8000
1F8000
1F8000
000000
000000
000000
000000
000000
000000
1FF000
1FF000
1FF000
007000
007000
007000
007000
007000
007000
007000
007000
007000
ENDCHAR
STARTCHAR char60
ENCODING 60
SWIDTH 1383 0
DWIDTH 21 0
BBX 21 39 0 -6
BITMAP
000000
000000
000000
000000
000000
000000
000000
000000
000000
000000
000000
000000
007E00
007E00
007E00
03F000
03F000
03F000
1F8000
1F8000
1F8000
FC0000
FC0000
FC0000
1F8000
1F8000
1F8000
03F000
03F000
03F000
007E00
007E00
007E00
000000
000000
000000
000000
000000
000000
ENDCHAR
STARTCHAR char61
ENCODING 61
SWIDTH 1383 0
DWIDTH 21 0
BBX 21 39 0 -6
BITMAP
000000
000000
000000
000000
000000
000000
000000
000000
000000
000000
000000
000000
000000
000000
000000
000000
000000
000000
000000
000000
000000
FFF000
FFF000
FFF000
000000
000000
000000
FFF000
FFF000
FFF000
000000
000000
000000
000000
000000
000000
000000
000000
000000
ENDCHAR
STARTCHAR char62
ENCODING 62
SWIDTH 1383 0
DWIDTH 21 0
BBX 21 39 0 -6
BITMAP
000000
000000
000000
000000
000000
000000
000000
000000
000000
000000
000000
000000
FC0000
FC0000
FC0000
1F8000
1F8000
1F8000
03F000
03F000
03F000
007E00
007E00
007E00
03F000
03F000
03F000
1F8000
1F8000
1F8000
FC0000
FC0000
FC0000
000000
000000
000000
000000
000000
000000
ENDCHAR
STARTCHAR char63
ENCODING 63
SWIDTH 1383 0
DWIDTH 21 0
BBX 21 39 0 -6
BITMAP
000000
000000
000000
000000
000000
000000
FFFE00
FFFE00
FFFE00
E00E00
E00E00
E00E00
E00E00
E00E00
E00E00
000E00
000E00
000E00
03FE00
03FE00
03FE00
038000
038000
038000
038000
038000
038000
000000
000000
000000
038000
038000
038000
038000
038000
038000
000000
000000
000000
ENDCHAR
STARTCHAR char64
ENCODING 64
SWIDTH 1383 0
DWIDTH 21 0
BBX 21 39 0 -6
BITMAP
000000
000000
000000
000000
000000
000000
FFFFC0
FFFFC0
FFFFC0
E001C0
E001C0
E001C0
E001C0
E001C0
E001C0
0001C0
0001C0
0001C0
0001C0
0001C0
0001C0
FFF1C0
FFF1C0
FFF1C0
E071C0
E071C0
E071C0
E071C0
E071C0
E071C0
FFFFC0
FFFFC0
FFFFC0
000000
000000
000000
000000
000000
000000
ENDCHAR
STARTCHAR char65
ENCODING 65
SWIDTH 1383 0
DWIDTH 21 0
BBX 21 39 0 -6
BITMAP
000000
000000
000000
000000
000000
000000
000000
000000
000000
1FFE00
1FFE00
1FFE00
E00E00
E00E00
E00E00
E00E00
E00E00
E00E00
E00E00
E00E00
E00E00
E00E00
E00E00
E00E00
FFFE00
FFFE00
FFFE00
E00E00
E00E00
E00E00
E00E00
E00E00
E00E00
000000
000000
000000
000000
000000
000000
ENDCHAR
STARTCHAR char66
ENCODING 66
SWIDTH 1383 0
DWIDTH 21 0
BBX 21 39 0 -6
BITMAP
000000
000000
000000
000000
000000
000000
000000
000000
000000
FFF000
FFF000
FFF000
E07000
E07000
E07000
E07000
E07000
E07000
FFFE00
FFFE00
FFFE00
E00E00
E00E00
E00E00
E00E00
E00E00
E00E00
E00E00
E00E00
E00E00
FFFE00
FFFE00
FFFE00
000000
000000
000000
000000
000000
000000
ENDCHAR
STARTCHAR char67
ENCODING 67
SWIDTH 1383 0
DWIDTH 21 0
BBX 21 39 0 -6
BITMAP
000000
000000
000000
000000
000000
000000
000000
000000
000000
1FFE00
1FFE00
1FFE00
E00000
E00000
E00000
E00000
E00000
E00000
E00000
E00000
E00000
E00000
E00000
E00000
E00000
E00000
E00000
E00000
E00000
E00000
FFFE00
FFFE00
FFFE00
000000
000000
000000
000000
000000
000000
ENDCHAR
STARTCHAR char68
ENCODING 68
SWIDTH 1383 0
DWIDTH 21 0
BBX 21 39 0 -6
BITMAP
000000
000000
000000
000000
000000
000000
000000
000000
000000
FFFE00
FFFE00
FFFE00
1C01C0
1C01C0
1C01C0
1C01C0
1C01C0
1C01C0
1C01C0
1C01C0
1C01C0
1C01C0
1C01C0
1C01C0
1C01C0
1C01C0
1C01C0
1C01C0
1C01C0
1C01C0
FFFE00
FFFE00
FFFE00
000000
000000
000000
000000
000000
000000
ENDCHAR
STARTCHAR char69
ENCODING 69
SWIDTH 1383 0
DWIDTH 21 0
BBX 21 39 0 -6
BITMAP
000000
000000
000000
000000
000000
000000
000000
000000
000000
FFFE00
FFFE00
FFFE00
E00000
E00000
E00000
E00000
E00000
E00000
FFF000
FFF000
FFF000
E00000
E00000
E00000
E00000
E00000
E00000
E00000
E00000
E00000
FFFE00
FFFE00
FFFE00
000000
000000
000000
000000
000000
000000
ENDCHAR
STARTCHAR char70
ENCODING 70
SWIDTH 1383 0
DWIDTH 21 0
BBX 21 39 0 -6
BITMAP
000000
000000
000000
000000
000000
000000
000000
000000
000000
FFFE00
FFFE00
FFFE00
E00000
E00000
E00000
E00000
E00000
E00000
FFF000
FFF000
FFF000
E00000
E00000
E00000
E00000
E00000
E00000
E00000
E00000
E00000
E00000
E00000
E00000
000000
000000
000000
000000
000000
000000
ENDCHAR
STARTCHAR char71
ENCODING 71
SWIDTH 1383 0
DWIDTH 21 0
BBX 21 39 0 -6
BITMAP
000000
000000
000000
000000
000000
000000
000000
000000
000000
1FFE00
1FFE00
1FFE00
E00000
E00000
E00000
E00000
E00000
E00000
E00000
E00000
E00000
E07E00
E07E00
E07E00
E00E00
E00E00
E00E00
E00E00
E00E00
E00E00
FFFE00
FFFE00
FFFE00
000000
000000
000000
000000
000000
000000
ENDCHAR
STARTCHAR char72
ENCODING 72
SWIDTH 1383 0
DWIDTH 21 0
BBX 21 39 0 -6
BITMAP
000000
000000
000000
000000
000000
000000
000000
000000
000000
E00E00
E00E00
E00E00
E00E00
E00E00
E00E00
E00E00
E00E00
E00E00
E00E00
E00E00
E00E00
FFFE00
FFFE00
FFFE00
E00E00
E00E00
E00E00
E00E00
E00E00
E00E00
E00E00
E00E00
E00E00
000000
000000
000000
000000
000000
000000
ENDCHAR
STARTCHAR char73
ENCODING 73
SWIDTH 1383 0
DWIDTH 21 0
BBX 21 39 0 -6
BITMAP
000000
000000
000000
000000
000000
000000
000000
000000
000000
FFFE00
FFFE00
FFFE00
038000
038000
038000
038000
038000
038000
038000
038000
038000
038000
038000
038000
038000
038000
038000
038000
038000
038000
FFFE00
FFFE00
FFFE00
000000
000000
000000
000000
000000
000000
ENDCHAR
STARTCHAR char74
ENCODING 74
SWIDTH 1383 0
DWIDTH 21 0
BBX 21 39 0 -6
BITMAP
000000
000000
000000
000000
000000
000000
000000
000000
000000
03FE00
03FE00
03FE00
000E00
000E00
000E00
000E00
000E00
000E00
000E00
000E00
000E00
000E00
000E00
000E00
000E00
000E00
000E00
E00E00
E00E00
E00E00
FFFE00
FFFE00
FFFE00
000000
000000
000000
000000
000000
000000
ENDCHAR
STARTCHAR char75
ENCODING 75
SWIDTH 1383 0
DWIDTH 21 0
BBX 21 39 0 -6
BITMAP
000000
000000
000000
000000
000000
000000
000000
000000
000000
E00E00
E00E00
E00E00
E00E00
E00E00
E00E00
E00E00
E00E00
E00E00
E00E00
E00E00
E00E00
FFF000
FFF000
FFF000
E00E00
E00E00
E00E00
E00E00
E00E00
E00E00
E00E00
E00E00
E00E00
000000
000000
000000
000000
000000
000000
ENDCHAR
STARTCHAR char76
ENCODING 76
SWIDTH 1383 0
DWIDTH 21 0
BBX 21 39 0 -6
BITMAP
000000
000000
000000
000000
000000
000000
000000
000000
000000
E00000
E00000
E00000
E00000
E00000
E00000
E00000
E00000
E00000
E00000
E00000
E00000
E00000
E00000
E00000
E00000
E00000
E00000
E00000
E00000
E00000
FFFE00
FFFE00
FFFE00
000000
000000
000000
000000
000000
000000
ENDCHAR
STARTCHAR char77
ENCODING 77
SWIDTH 1383 0
DWIDTH 21 0
BBX 21 39 0 -6
BITMAP
000000
000000
000000
000000
000000
000000
000000
000000
000000
E00E00
E00E00
E00E00
FC7E00
FC7E00
FC7E00
FFFE00
FFFE00
FFFE00
E38E00
E38E00
E38E00
E00E00
E00E00
E00E00
E00E00
E00E00
E00E00
E00E00
E00E00
E00E00
E00E00
E00E00
E00E00
000000
000000
000000
000000
000000
000000
ENDCHAR
STARTCHAR char78
ENCODING 78
SWIDTH 1383 0
DWIDTH 21 0
BBX 21 39 0 -6
BITMAP
000000
000000
000000
000000
000000
000000
000000
000000
000000
E00E00
E00E00
E00E00
E00E00
E00E00
E00E00
FC0E00
FC0E00
FC0E00
FF8E00
FF8E00
FF8E00
E3FE00
E3FE00
E3FE00
E07E00
E07E00
E07E00
E00E00
E00E00
E00E00
E00E00
E00E00
E00E00
000000
000000
000000
000000
000000
000000
ENDCHAR
STARTCHAR char79
ENCODING 79
SWIDTH 1383 0
DWIDTH 21 0
BBX 21 39 0 -6
BITMAP
000000
000000
000000
000000
000000
000000
000000
000000
000000
FFFE00
FFFE00
FFFE00
E00E00
E00E00
E00E00
E00E00
E00E00
E00E00
E00E00
E00E00
E00E00
E00E00
E00E00
E00E00
E00E00
E00E00
E00E00
E00E00
E00E00
E00E00
FFFE00
FFFE00
FFFE00
000000
000000
000000
000000
000000
000000
ENDCHAR
STARTCHAR char80
ENCODING 80
SWIDTH 1383 0
DWIDTH 21 0
BBX 21 39 0 -6
BITMAP
000000
000000
000000
000000
000000
000000
000000
000000
000000
FFFFC0
FFFFC0
FFFFC0
1C01C0
1C01C0
1C01C0
1C01C0
1C01C0
1C01C0
1C01C0
1C01C0
1C01C0
1FFE00
1FFE00
1FFE00
1C0000
1C0000
1C0000
1C0000
1C0000
1C0000
1C0000
1C0000
1C0000
000000
000000
000000
000000
000000
000000
ENDCHAR
STARTCHAR char81
ENCODING 81
SWIDTH 1383 0
DWIDTH 21 0
BBX 21 39 0 -6
BITMAP
000000
000000
000000
000000
000000
000000
000000
000000
000000
1FFE00
1FFE00
1FFE00
E00E00
E00E00
E00E00
E00E00
E00E00
E00E00
E00E00
E00E00
E00E00
E00E00
E00E00
E00E00
FC0E00
FC0E00
FC0E00
E38E00
E38E00
E38E00
FFF000
FFF000
FFF000
007E00
007E00
007E00
000000
000000
000000
ENDCHAR
STARTCHAR char82
ENCODING 82
SWIDTH 1383 0
DWIDTH 21 0
BBX 21 39 0 -6
BITMAP
000000
000000
000000
000000
000000
000000
000000
000000
000000
FFFFC0
FFFFC0
FFFFC0
1C01C0
1C01C0
1C01C0
1C01C0
1C01C0
1C01C0
1C01C0
1C01C0
1C01C0
1FFE00
1FFE00
1FFE00
1C01C0
1C01C0
1C01C0
1C01C0
1C01C0
1C01C0
1C01C0
1C01C0
1C01C0
000000
000000
000000
000000
000000
000000
ENDCHAR
STARTCHAR char83
ENCODING 83
SWIDTH 1383 0
DWIDTH 21 0
BBX 21 39 0 -6
BITMAP
000000
000000
000000
000000
000000
000000
000000
000000
000000
1FFE00
1FFE00
1FFE00
E00000
E00000
E00000
E00000
E00000
E00000
E00000
E00000
E00000
FFFE00
FFFE00
FFFE00
000E00
000E00
000E00
000E00
000E00
000E00
FFFE00
FFFE00
FFFE00
000000
000000
000000
000000
000000
000000
ENDCHAR
STARTCHAR char84
ENCODING 84
SWIDTH 1383 0
DWIDTH 21 0
BBX 21 39 0 -6
BITMAP
000000
000000
000000
000000
000000
000000
000000
000000
000000
FFFE00
FFFE00
FFFE00
E38E00
E38E00
E38E00
038000
038000
038000
038000
038000
038000
038000
038000
038000
038000
038000
038000
038000
038000
038000
038000
038000
038000
000000
000000
000000
000000
000000
000000
ENDCHAR
STARTCHAR char85
ENCODING 85
SWIDTH 1383 0
DWIDTH 21 0
BBX 21 39 0 -6
BITMAP
000000
000000
000000
000000
000000
000000
000000
000000
000000
E00E00
E00E00
E00E00
E00E00
E00E00
E00E00
E00E00
E00E00
E00E00
E00E00
E00E00
E00E00
E00E00
E00E00
E00E00
E00E00
E00E00
E00E00
E00E00
E00E00
E00E00
FFFE00
FFFE00
FFFE00
000000
000000
000000
000000
000000
000000
ENDCHAR
STARTCHAR char86
ENCODING 86
SWIDTH 1383 0
DWIDTH 21 0
BBX 21 39 0 -6
BITMAP
000000
000000
000000
000000
000000
000000
000000
000000
000000
E00E00
E00E00
E00E00
E00E00
E00E00
E00E00
E00E00
E00E00
E00E00
E07E00
E07E00
E07E00
E3F000
E3F000
E3F000
FF8000
FF8000
FF8000
FC0000
FC0000
FC0000
E00000
E00000
E00000
000000
000000
000000
000000
000000
000000
ENDCHAR
STARTCHAR char87
ENCODING 87
SWIDTH 1383 0
DWIDTH 21 0
BBX 21 39 0 -6
BITMAP
000000
000000
000000
000000
000000
000000
000000
000000
000000
E00E00
E00E00
E00E00
E00E00
E00E00
E00E00
E00E00
E00E00
E00E00
E00E00
E00E00
E00E00
E38E00
E38E00
E38E00
FFFE00
FFFE00
FFFE00
FC7E00
FC7E00
FC7E00
E00E00
E00E00
E00E00
000000
000000
000000
000000
000000
000000
ENDCHAR
STARTCHAR char88
ENCODING 88
SWIDTH 1383 0
DWIDTH 21 0
BBX 21 39 0 -6
BITMAP
000000
000000
000000
000000
000000
000000
000000
000000
000000
E00E00
E00E00
E00E00
E00E00
E00E00
E00E00
E00E00
E00E00
E00E00
1FF000
1FF000
1FF000
1FF000
1FF000
1FF000
E00E00
E00E00
E00E00
E00E00
E00E00
E00E00
E00E00
E00E00
E00E00
000000
000000
000000
000000
000000
000000
ENDCHAR
STARTCHAR char89
ENCODING 89
SWIDTH 1383 0
DWIDTH 21 0
BBX 21 39 0 -6
BITMAP
000000
000000
000000
000000
000000
000000
000000
000000
000000
E00E00
E00E00
E00E00
E00E00
E00E00
E00E00
E00E00
E00E00
E00E00
FC7E00
FC7E00
FC7E00
1FF000
1FF000
1FF000
038000
038000
038000
038000
038000
038000
038000
038000
038000
000000
000000
000000
000000
000000
000000
ENDCHAR
STARTCHAR char90
ENCODING 90
SWIDTH 1383 0
DWIDTH 21 0
BBX 21 39 0 -6
BITMAP
000000
000000
000000
000000
000000
000000
000000
000000
000000
FFFE00
FFFE00
FFFE00
000E00
000E00
000E00
007E00
007E00
007E00
03F000
03F000
03F000
1F8000
1F8000
1F8000
FC0000
FC0000
FC0000
E00000
E00000
E00000
FFFE00
FFFE00
FFFE00
000000
000000
000000
000000
000000
000000
ENDCHAR
STARTCHAR char91
ENCODING 91
SWIDTH 1383 0
DWIDTH 21 0
BBX 21 39 0 -6
BITMAP
000000
000000
000000
000000
000000
000000
FFFE00
FFFE00
FFFE00
E38000
E38000
E38000
E38000
E38000
E38000
E38000
E38000
E38000
E38000
E38000
E38000
E38000
E38000
E38000
E38000
E38000
E38000
E38000
E38000
E38000
E38000
E38000
E38000
FFFE00
FFFE00
FFFE00
000000
000000
000000
ENDCHAR
STARTCHAR char92
ENCODING 92
SWIDTH 1383 0
DWIDTH 21 0
BBX 21 39 0 -6
BITMAP
000000
000000
000000
000000
000000
000000
E00000
E00000
E00000
E00000
E00000
E00000
1C0000
1C0000
1C0000
1C0000
1C0000
1C0000
038000
038000
038000
038000
038000
038000
007000
007000
007000
007000
007000
007000
000E00
000E00
000E00
000E00
000E00
000E00
000000
000000
000000
ENDCHAR
STARTCHAR char93
ENCODING 93
SWIDTH 1383 0
DWIDTH 21 0
BBX 21 39 0 -6
BITMAP
000000
000000
000000
000000
000000
000000
FFFE00
FFFE00
FFFE00
038E00
038E00
038E00
038E00
038E00
038E00
038E00
038E00
038E00
038E00
038E00
038E00
038E00
038E00
038E00
038E00
038E00
038E00
038E00
038E00
038E00
038E00
038E00
038E00
FFFE00
FFFE00
FFFE00
000000
000000
000000
ENDCHAR
STARTCHAR char94
ENCODING 94
SWIDTH 1383 0
DWIDTH 21 0
BBX 21 39 0 -6
BITMAP
000000
000000
000000
000000
000000
000000
000000
000000
000000
038000
038000
038000
1FF000
1FF000
1FF000
FC7E00
FC7E00
FC7E00
E00E00
E00E00
E00E00
000000
000000
000000
000000
000000
000000
000000
000000
000000
000000
000000
000000
000000
000000
000000
000000
000000
000000
ENDCHAR
STARTCHAR char95
ENCODING 95
SWIDTH 1383 0
DWIDTH 21 0
BBX 21 39 0 -6
BITMAP
000000
000000
000000
000000
000000
000000
000000
000000
000000
000000
000000
000000
000000
000000
000000
000000
000000
000000
000000
000000
000000
000000
000000
000000
000000
000000
000000
000000
000000
000000
FFFFC0
FFFFC0
FFFFC0
000000
000000
000000
000000
000000
000000
ENDCHAR
STARTCHAR char96
ENCODING 96
SWIDTH 1383 0
DWIDTH 21 0
BBX 21 39 0 -6
BITMAP
000000
000000
000000
000000
000000
000000
1C0000
1C0000
1C0000
1F8000
1F8000
1F8000
038000
038000
038000
000000
000000
000000
000000
000000
000000
000000
000000
000000
000000
000000
000000
000000
000000
000000
000000
000000
000000
000000
000000
000000
000000
000000
000000
ENDCHAR
STARTCHAR char97
ENCODING 97
SWIDTH 1383 0
DWIDTH 21 0
BBX 21 39 0 -6
BITMAP
000000
000000
000000
000000
000000
000000
000000
000000
000000
000000
000000
000000
000000
000000
000000
1FFE00
1FFE00
1FFE00
000E00
000E00
000E00
FFFE00
FFFE00
FFFE00
E00E00
E00E00
E00E00
E00E00
E00E00
E00E00
FFFE00
FFFE00
FFFE00
000000
000000
000000
000000
000000
000000
ENDCHAR
STARTCHAR char98
ENCODING 98
SWIDTH 1383 0
DWIDTH 21 0
BBX 21 39 0 -6
BITMAP
000000
000000
000000
000000
000000
000000
E00000
E00000
E00000
E00000
E00000
E00000
E00000
E00000
E00000
FFFE00
FFFE00
FFFE00
E00E00
E00E00
E00E00
E00E00
E00E00
E00E00
E00E00
E00E00
E00E00
E00E00
E00E00
E00E00
FFFE00
FFFE00
FFFE00
000000
000000
000000
000000
000000
000000
ENDCHAR
STARTCHAR char99
ENCODING 99
SWIDTH 1383 0
DWIDTH 21 0
BBX 21 39 0 -6
BITMAP
000000
000000
000000
000000
000000
000000
000000
000000
000000
000000
000000
000000
000000
000000
000000
1FFE00
1FFE00
1FFE00
E00000
E00000
E00000
E00000
E00000
E00000
E00000
E00000
E00000
E00000
E00000
E00000
FFFE00
FFFE00
FFFE00
000000
000000
000000
000000
000000
000000
ENDCHAR
STARTCHAR char100
ENCODING 100
SWIDTH 1383 0
DWIDTH 21 0
BBX 21 39 0 -6
BITMAP
000000
000000
000000
000000
000000
000000
000E00
000E00
000E00
000E00
000E00
000E00
000E00
000E00
000E00
FFFE00
FFFE00
FFFE00
E00E00
E00E00
E00E00
E00E00
E00E00
E00E00
E00E00
E00E00
E00E00
E00E00
E00E00
E00E00
FFFE00
FFFE00
FFFE00
000000
000000
000000
000000
000000
000000
ENDCHAR
STARTCHAR char101
ENCODING 101
SWIDTH 1383 0
DWIDTH 21 0
BBX 21 39 0 -6
BITMAP
000000
000000
000000
000000
000000
000000
000000
000000
000000
000000
000000
000000
000000
000000
000000
FFFE00
FFFE00
FFFE00
E00E00
E00E00
E00E00
E00E00
E00E00
E00E00
FFFE00
FFFE00
FFFE00
E00000
E00000
E00000
FFFE00
FFFE00
FFFE00
000000
000000
000000
000000
000000
000000
ENDCHAR
STARTCHAR char102
ENCODING 102
SWIDTH 1383 0
DWIDTH 21 0
BBX 21 39 0 -6
BITMAP
000000
000000
000000
000000
000000
000000
03FE00
03FE00
03FE00
1C0000
1C0000
1C0000
1C0000
1C0000
1C0000
1C0000
1C0000
1C0000
1FFE00
1FFE00
1FFE00
1C0000
1C0000
1C0000
1C0000
1C0000
1C0000
1C0000
1C0000
1C0000
1C0000
1C0000
1C0000
000000
000000
000000
000000
000000
000000
ENDCHAR
STARTCHAR char103
ENCODING 103
SWIDTH 1383 0
DWIDTH 21 0
BBX 21 39 0 -6
BITMAP
000000
000000
000000
000000
000000
000000
000000
000000
000000
000000
000000
000000
000000
000000
000000
FFFE00
FFFE00
FFFE00
E00E00
E00E00
E00E00
E00E00
E00E00
E00E00
E00E00
E00E00
E00E00
FFFE00
FFFE00
FFFE00
000E00
000E00
000E00
000E00
000E00
000E00
FFFE00
FFFE00
FFFE00
ENDCHAR
STARTCHAR char104
ENCODING 104
SWIDTH 1383 0
DWIDTH 21 0
BBX 21 39 0 -6
BITMAP
000000
000000
000000
000000
000000
000000
E00000
E00000
E00000
E00000
E00000
E00000
E00000
E00000
E00000
FFFE00
FFFE00
FFFE00
E00E00
E00E00
E00E00
E00E00
E00E00
E00E00
E00E00
E00E00
E00E00
E00E00
E00E00
E00E00
E00E00
E00E00
E00E00
000000
000000
000000
000000
000000
000000
ENDCHAR
STARTCHAR char105
ENCODING 105
SWIDTH 1383 0
DWIDTH 21 0
BBX 21 39 0 -6
BITMAP
000000
000000
000000
000000
000000
000000
000000
000000
000000
038000
038000
038000
000000
000000
000000
1F8000
1F8000
1F8000
038000
038000
038000
038000
038000
038000
038000
038000
038000
038000
038000
038000
1FF000
1FF000
1FF000
000000
000000
000000
000000
000000
000000
ENDCHAR
STARTCHAR char106
ENCODING 106
SWIDTH 1383 0
DWIDTH 21 0
BBX 21 39 0 -6
BITMAP
000000
000000
000000
000000
000000
000000
000000
000000
000000
007000
007000
007000
000000
000000
000000
03F000
03F000
03F000
007000
007000
007000
007000
007000
007000
007000
007000
007000
007000
007000
007000
007000
007000
007000
E07000
E07000
E07000
FFF000
FFF000
FFF000
ENDCHAR
STARTCHAR char107
ENCODING 107
SWIDTH 1383 0
DWIDTH 21 0
BBX 21 39 0 -6
BITMAP
000000
000000
000000
000000
000000
000000
E00000
E00000
E00000
E00000
E00000
E00000
E00E00
E00E00
E00E00
E00E00
E00E00
E00E00
E00E00
E00E00
E00E00
FFF000
FFF000
FFF000
E00E00
E00E00
E00E00
E00E00
E00E00
E00E00
E00E00
E00E00
E00E00
000000
000000
000000
000000
000000
000000
ENDCHAR
STARTCHAR char108
ENCODING 108
SWIDTH 1383 0
DWIDTH 21 0
BBX 21 39 0 -6
BITMAP
000000
000000
000000
000000
000000
000000
1F8000
1F8000
1F8000
038000
038000
038000
038000
038000
038000
038000
038000
038000
038000
038000
038000
038000
038000
038000
038000
038000
038000
038000
038000
038000
03F000
03F000
03F000
000000
000000
000000
000000
000000
000000
ENDCHAR
STARTCHAR char109
ENCODING 109
SWIDTH 1383 0
DWIDTH 21 0
BBX 21 39 0 -6
BITMAP
000000
000000
000000
000000
000000
000000
000000
000000
000000
000000
000000
000000
000000
000000
000000
FFFE00
FFFE00
FFFE00
E38E00
E38E00
E38E00
E38E00
E38E00
E38E00
E38E00
E38E00
E38E00
E00E00
E00E00
E00E00
E00E00
E00E00
E00E00
000000
000000
000000
000000
000000
000000
ENDCHAR
STARTCHAR char110
ENCODING 110
SWIDTH 1383 0
DWIDTH 21 0
BBX 21 39 0 -6
BITMAP
000000
000000
000000
000000
000000
000000
000000
000000
000000
000000
000000
000000
000000
000000
000000
FFFE00
FFFE00
FFFE00
E00E00
E00E00
E00E00
E00E00
E00E00
E00E00
E00E00
E00E00
E00E00
E00E00
E00E00
E00E00
E00E00
E00E00
E00E00
000000
000000
000000
000000
000000
000000
ENDCHAR
STARTCHAR char111
ENCODING 111
SWIDTH 1383 0
DWIDTH 21 0
BBX 21 39 0 -6
BITMAP
000000
000000
000000
000000
000000
000000
000000
000000
000000
000000
000000
000000
000000
000000
000000
FFFE00
FFFE00
FFFE00
E00E00
E00E00
E00E00
E00E00
E00E00
E00E00
E00E00
E00E00
E00E00
E00E00
E00E00
E00E00
FFFE00
FFFE00
FFFE00
000000
000000
000000
000000
000000
000000
ENDCHAR
STARTCHAR char112
ENCODING 112
SWIDTH 1383 0
DWIDTH 21 0
BBX 21 39 0 -6
BITMAP
000000
000000
000000
000000
000000
000000
000000
000000
000000
000000
000000
000000
000000
000000
000000
FFFE00
FFFE00
FFFE00
E00E00
E00E00
E00E00
E00E00
E00E00
E00E00
E00E00
E00E00
E00E00
FFFE00
FFFE00
FFFE00
E00000
E00000
E00000
E00000
E00000
E00000
E00000
E00000
E00000
ENDCHAR
STARTCHAR char113
ENCODING 113
SWIDTH 1383 0
DWIDTH 21 0
BBX 21 39 0 -6
BITMAP
000000
000000
000000
000000
000000
000000
000000
000000
000000
000000
000000
000000
000000
000000
000000
FFFE00
FFFE00
FFFE00
E00E00
E00E00
E00E00
E00E00
E00E00
E00E00
E00E00
E00E00
E00E00
FFFE00
FFFE00
FFFE00
000E00
000E00
000E00
000E00
000E00
000E00
000E00
000E00
000E00
ENDCHAR
STARTCHAR char114
ENCODING 114
SWIDTH 1383 0
DWIDTH 21 0
BBX 21 39 0 -6
BITMAP
000000
000000
000000
000000
000000
000000
000000
000000
000000
000000
000000
000000
000000
000000
000000
FFFE00
FFFE00
FFFE00
E00E00
E00E00
E00E00
E00000
E00000
E00000
E00000
E00000
E00000
E00000
E00000
E00000
E00000
E00000
E00000
000000
000000
000000
000000
000000
000000
ENDCHAR
STARTCHAR char115
ENCODING 115
SWIDTH 1383 0
DWIDTH 21 0
BBX 21 39 0 -6
BITMAP
000000
000000
000000
000000
000000
000000
000000
000000
000000
000000
000000
000000
000000
000000
000000
1FFE00
1FFE00
1FFE00
E00000
E00000
E00000
FFF000
FFF000
FFF000
000E00
000E00
000E00
000E00
000E00
000E00
FFFE00
FFFE00
FFFE00
000000
000000
000000
000000
000000
000000
ENDCHAR
STARTCHAR char116
ENCODING 116
SWIDTH 1383 0
DWIDTH 21 0
BBX 21 39 0 -6
BITMAP
000000
000000
000000
000000
000000
000000
1C0000
1C0000
1C0000
1C0000
1C0000
1C0000
1C0000
1C0000
1C0000
1FFE00
1FFE00
1FFE00
1C0000
1C0000
1C0000
1C0000
1C0000
1C0000
1C0000
1C0000
1C0000
1C0E00
1C0E00
1C0E00
1FFE00
1FFE00
1FFE00
000000
000000
000000
000000
000000
000000
ENDCHAR
STARTCHAR char117
ENCODING 117
SWIDTH 1383 0
DWIDTH 21 0
BBX 21 39 0 -6
BITMAP
000000
000000
000000
000000
000000
000000
000000
000000
000000
000000
000000
000000
000000
000000
000000
E00E00
E00E00
E00E00
E00E00
E00E00
E00E00
E00E00
E00E00
E00E00
E00E00
E00E00
E00E00
E00E00
E00E00
E00E00
FFFE00
FFFE00
FFFE00
000000
000000
000000
000000
000000
000000
ENDCHAR
STARTCHAR char118
ENCODING 118
SWIDTH 1383 0
DWIDTH 21 0
BBX 21 39 0 -6
BITMAP
000000
000000
000000
000000
000000
000000
000000
000000
000000
000000
000000
000000
000000
000000
000000
E00E00
E00E00
E00E00
E00E00
E00E00
E00E00
E00E00
E00E00
E00E00
FC7E00
FC7E00
FC7E00
1FF000
1FF000
1FF000
038000
038000
038000
000000
000000
000000
000000
000000
000000
ENDCHAR
STARTCHAR char119
ENCODING 119
SWIDTH 1383 0
DWIDTH 21 0
BBX 21 39 0 -6
BITMAP
000000
000000
000000
000000
000000
000000
000000
000000
000000
000000
000000
000000
000000
000000
000000
E00E00
E00E00
E00E00
E00E00
E00E00
E00E00
E38E00
E38E00
E38E00
E38E00
E38E00
E38E00
E38E00
E38E00
E38E00
FFFE00
FFFE00
FFFE00
000000
000000
000000
000000
000000
000000
ENDCHAR
STARTCHAR char120
ENCODING 120
SWIDTH 1383 0
DWIDTH 21 0
BBX 21 39 0 -6
BITMAP
000000
000000
000000
000000
000000
000000
000000
000000
000000
000000
000000
000000
000000
000000
000000
E00E00
E00E00
E00E00
E00E00
E00E00
E00E00
1FF000
1FF000
1FF000
1FF000
1FF000
1FF000
E00E00
E00E00
E00E00
E00E00
E00E00
E00E00
000000
000000
000000
000000
000000
000000
ENDCHAR
STARTCHAR char121
ENCODING 121
SWIDTH 1383 0
DWIDTH 21 0
BBX 21 39 0 -6
BITMAP
000000
000000
000000
000000
000000
000000
000000
000000
000000
000000
000000
000000
000000
000000
000000
E00E00
E00E00
E00E00
E00E00
E00E00
E00E00
E00E00
E00E00
E00E00
E00E00
E00E00
E00E00
FFFE00
FFFE00
FFFE00
000E00
000E00
000E00
000E00
000E00
000E00
FFFE00
FFFE00
FFFE00
ENDCHAR
STARTCHAR char122
ENCODING 122
SWIDTH 1383 0
DWIDTH 21 0
BBX 21 39 0 -6
BITMAP
000000
000000
000000
000000
000000
000000
000000
000000
000000
000000
000000
000000
000000
000000
000000
FFFE00
FFFE00
FFFE00
000E00
000E00
000E00
03F000
03F000
03F000
1F8000
1F8000
1F8000
E00000
E00000
E00000
FFFE00
FFFE00
FFFE00
000000
000000
000000
000000
000000
000000
ENDCHAR
STARTCHAR char123
ENCODING 123
SWIDTH 1383 0
DWIDTH 21 0
BBX 21 39 0 -6
BITMAP
000000
000000
000000
000000
000000
000000
03F000
03F000
03F000
1C0000
1C0000
1C0000
1C0000
1C0000
1C0000
1C0000
1C0000
1C0000
FC0000
FC0000
FC0000
1C0000
1C0000
1C0000
1C0000
1C0000
1C0000
1C0000
1C0000
1C0000
1C0000
1C0000
1C0000
03F000
03F000
03F000
000000
000000
000000
ENDCHAR
STARTCHAR char124
ENCODING 124
SWIDTH 1383 0
DWIDTH 21 0
BBX 21 39 0 -6
BITMAP
000000
000000
000000
000000
000000
000000
038000
038000
038000
038000
038000
038000
038000
038000
038000
038000
038000
038000
038000
038000
038000
038000
038000
038000
038000
038000
038000
038000
038000
038000
038000
038000
038000
038000
038000
038000
000000
000000
000000
ENDCHAR
STARTCHAR char125
ENCODING 125
SWIDTH 1383 0
DWIDTH 21 0
BBX 21 39 0 -6
BITMAP
000000
000000
000000
000000
000000
000000
FC0000
FC0000
FC0000
038000
038000
038000
038000
038000
038000
038000
038000
038000
03F000
03F000
03F000
038000
038000
038000
038000
038000
038000
038000
038000
038000
038000
038000
038000
FC0000
FC0000
FC0000
000000
000000
000000
ENDCHAR
STARTCHAR char126
ENCODING 126
SWIDTH 1383 0
DWIDTH 21 0
BBX 21 39 0 -6
BITMAP
000000
000000
000000
000000
000000
000000
000000
000000
000000
000000
000000
000000
000000
000000
000000
000000
000000
000000
FF8E00
FF8E00
FF8E00
E38E00
E38E00
E38E00
E3FE00
E3FE00
E3FE00
000000
000000
000000
000000
000000
000000
000000
000000
000000
000000
000000
000000
ENDCHAR
STARTCHAR char161
ENCODING 161
SWIDTH 1383 0
DWIDTH 21 0
BBX 21 39 0 -6
BITMAP
000000
000000
000000
000000
000000
000000
000000
000000
000000
038000
038000
038000
038000
038000
038000
000000
000000
000000
038000
038000
038000
038000
038000
038000
038000
038000
038000
038000
038000
038000
038000
038000
038000
000000
000000
000000
000000
000000
000000
ENDCHAR
STARTCHAR char162
ENCODING 162
SWIDTH 1383 0
DWIDTH 21 0
BBX 21 39 0 -6
BITMAP
000000
000000
000000
000000
000000
000000
000000
000000
000000
007000
007000
007000
1FFE00
1FFE00
1FFE00
E07000
E07000
E07000
E38000
E38000
E38000
E38000
E38000
E38000
E38000
E38000
E38000
1FFE00
1FFE00
1FFE00
1C0000
1C0000
1C0000
000000
000000
000000
000000
000000
000000
ENDCHAR
STARTCHAR char163
ENCODING 163
SWIDTH 1383 0
DWIDTH 21 0
BBX 21 39 0 -6
BITMAP
000000
000000
000000
000000
000000
000000
000000
000000
000000
03FE00
03FE00
03FE00
1C0000
1C0000
1C0000
1C0000
1C0000
1C0000
1C0000
1C0000
1C0000
FFF000
FFF000
FFF000
1C0000
1C0000
1C0000
1C0000
1C0000
1C0000
FFFE00
FFFE00
FFFE00
000000
000000
000000
000000
000000
000000
ENDCHAR
STARTCHAR char164
ENCODING 164
SWIDTH 1383 0
DWIDTH 21 0
BBX 21 39 0 -6
BITMAP
000000
000000
000000
000000
000000
000000
000000
000000
000000
000000
000000
000000
000000
000000
000000
E001C0
E001C0
E001C0
1FFE00
1FFE00
1FFE00
1C0E00
1C0E00
1C0E00
1C0E00
1C0E00
1C0E00
1FFE00
1FFE00
1FFE00
E001C0
E001C0
E001C0
000000
000000
000000
000000
000000
000000
ENDCHAR
STARTCHAR char165
ENCODING 165
SWIDTH 1383 0
DWIDTH 21 0
BBX 21 39 0 -6
BITMAP
000000
000000
000000
000000
000000
000000
000000
000000
000000
E00E00
E00E00
E00E00
FC7E00
FC7E00
FC7E00
1FF000
1FF000
1FF000
038000
038000
038000
1FF000
1FF000
1FF000
038000
038000
038000
1FF000
1FF000
1FF000
038000
038000
038000
000000
000000
000000
000000
000000
000000
ENDCHAR
STARTCHAR char166
ENCODING 166
SWIDTH 1383 0
DWIDTH 21 0
BBX 21 39 0 -6
BITMAP
000000
000000
000000
000000
000000
000000
038000
038000
038000
038000
038000
038000
038000
038000
038000
038000
038000
038000
038000
038000
038000
038000
038000
038000
038000
038000
038000
038000
038000
038000
038000
038000
038000
038000
038000
038000
000000
000000
000000
ENDCHAR
STARTCHAR char167
ENCODING 167
SWIDTH 1383 0
DWIDTH 21 0
BBX 21 39 0 -6
BITMAP
000000
000000
000000
000000
000000
000000
000000
000000
000000
03FFC0
03FFC0
03FFC0
1C0000
1C0000
1C0000
1FF000
1FF000
1FF000
E00E00
E00E00
E00E00
1C01C0
1C01C0
1C01C0
03FE00
03FE00
03FE00
000E00
000E00
000E00
FFF000
FFF000
FFF000
000000
000000
000000
000000
000000
000000
ENDCHAR
STARTCHAR char168
ENCODING 168
SWIDTH 1383 0
DWIDTH 21 0
BBX 21 39 0 -6
BITMAP
000000
000000
000000
1C0E00
1C0E00
1C0E00
000000
000000
000000
000000
000000
000000
000000
000000
000000
000000
000000
000000
000000
000000
000000
000000
000000
000000
000000
000000
000000
000000
000000
000000
000000
000000
000000
000000
000000
000000
000000
000000
000000
ENDCHAR
STARTCHAR char169
ENCODING 169
SWIDTH 1383 0
DWIDTH 21 0
BBX 21 39 0 -6
BITMAP
000000
000000
000000
000000
000000
000000
000000
000000
000000
03FE00
03FE00
03FE00
1C01C0
1C01C0
1C01C0
E07E38
E07E38
E07E38
E38038
E38038
E38038
E07E38
E07E38
E07E38
1C01C0
1C01C0
1C01C0
03FE00
03FE00
03FE00
000000
000000
000000
000000
000000
000000
000000
000000
000000
ENDCHAR
STARTCHAR char170
ENCODING 170
SWIDTH 1383 0
DWIDTH 21 0
BBX 21 39 0 -6
BITMAP
000000
000000
000000
000000
000000
000000
000000
000000
000000
1FF000
1FF000
1FF000
007000
007000
007000
FFF000
FFF000
FFF000
E07000
E07000
E07000
FFF000
FFF000
FFF000
000000
000000
000000
000000
000000
000000
000000
000000
000000
000000
000000
000000
000000
000000
000000
ENDCHAR
STARTCHAR char171
ENCODING 171
SWIDTH 1383 0
DWIDTH 21 0
BBX 21 39 0 -6
BITMAP
000000
000000
000000
000000
000000
000000
000000
000000
000000
000000
000000
000000
000000
000000
000000
1C0E00
1C0E00
1C0E00
E07000
E07000
E07000
1C0E00
1C0E00
1C0E00
000000
000000
000000
000000
000000
000000
000000
000000
000000
000000
000000
000000
000000
000000
000000
ENDCHAR
STARTCHAR char172
ENCODING 172
SWIDTH 1383 0
DWIDTH 21 0
BBX 21 39 0 -6
BITMAP
000000
000000
000000
000000
000000
000000
000000
000000
000000
000000
000000
000000
000000
000000
000000
000000
000000
000000
000000
000000
000000
000000
000000
000000
FFFE00
FFFE00
FFFE00
000E00
000E00
000E00
000E00
000E00
000E00
000000
000000
000000
000000
000000
000000
ENDCHAR
STARTCHAR char174
ENCODING 174
SWIDTH 1383 0
DWIDTH 21 0
BBX 21 39 0 -6
BITMAP
000000
000000
000000
000000
000000
000000
000000
000000
000000
03FE00
03FE00
03FE00
1C01C0
1C01C0
1C01C0
E3FE38
E3FE38
E3FE38
E3F038
E3F038
E3F038
E38E38
E38E38
E38E38
1C01C0
1C01C0
1C01C0
03FE00
03FE00
03FE00
000000
000000
000000
000000
000000
000000
000000
000000
000000
ENDCHAR
STARTCHAR char175
ENCODING 175
SWIDTH 1383 0
DWIDTH 21 0
BBX 21 39 0 -6
BITMAP
000000
000000
000000
000000
000000
000000
000000
000000
000000
1FFE00
1FFE00
1FFE00
000000
000000
000000
000000
000000
000000
000000
000000
000000
000000
000000
000000
000000
000000
000000
000000
000000
000000
000000
000000
000000
000000
000000
000000
000000
000000
000000
ENDCHAR
STARTCHAR char176
ENCODING 176
SWIDTH 1383 0
DWIDTH 21 0
BBX 21 39 0 -6
BITMAP
000000
000000
000000
000000
000000
000000
1FFE00
1FFE00
1FFE00
1C0E00
1C0E00
1C0E00
1C0E00
1C0E00
1C0E00
1FFE00
1FFE00
1FFE00
000000
000000
000000
000000
000000
000000
000000
000000
000000
000000
000000
000000
000000
000000
000000
000000
000000
000000
000000
000000
000000
ENDCHAR
STARTCHAR char177
ENCODING 177
SWIDTH 1383 0
DWIDTH 21 0
BBX 21 39 0 -6
BITMAP
000000
000000
000000
000000
000000
000000
000000
000000
000000
000000
000000
000000
038000
038000
038000
038000
038000
038000
FFFE00
FFFE00
FFFE00
038000
038000
038000
038000
038000
038000
000000
000000
000000
FFFE00
FFFE00
FFFE00
000000
000000
000000
000000
000000
000000
ENDCHAR
STARTCHAR char178
ENCODING 178
SWIDTH 1383 0
DWIDTH 21 0
BBX 21 39 0 -6
BITMAP
000000
000000
000000
000000
000000
000000
FFF000
FFF000
FFF000
007000
007000
007000
FFF000
FFF000
FFF000
E00000
E00000
E00000
FFF000
FFF000
FFF000
000000
000000
000000
000000
000000
000000
000000
000000
000000
000000
000000
000000
000000
000000
000000
000000
000000
000000
ENDCHAR
STARTCHAR char179
ENCODING 179
SWIDTH 1383 0
DWIDTH 21 0
BBX 21 39 0 -6
BITMAP
000000
000000
000000
000000
000000
000000
FFF000
FFF000
FFF000
007000
007000
007000
1FF000
1FF000
1FF000
007000
007000
007000
FFF000
FFF000
FFF000
000000
000000
000000
000000
000000
000000
000000
000000
000000
000000
000000
000000
000000
000000
000000
000000
000000
000000
ENDCHAR
STARTCHAR char180
ENCODING 180
SWIDTH 1383 0
DWIDTH 21 0
BBX 21 39 0 -6
BITMAP
000000
000000
000000
007000
007000
007000
038000
038000
038000
000000
000000
000000
000000
000000
000000
000000
000000
000000
000000
000000
000000
000000
000000
000000
000000
000000
000000
000000
000000
000000
000000
000000
000000
000000
000000
000000
000000
000000
000000
ENDCHAR
STARTCHAR char181
ENCODING 181
SWIDTH 1383 0
DWIDTH 21 0
BBX 21 39 0 -6
BITMAP
000000
000000
000000
000000
000000
000000
000000
000000
000000
000000
000000
000000
000000
000000
000000
E00E00
E00E00
E00E00
E00E00
E00E00
E00E00
E00E00
E00E00
E00E00
FC7E00
FC7E00
FC7E00
FFFE00
FFFE00
FFFE00
E38E00
E38E00
E38E00
E00000
E00000
E00000
E00000
E00000
E00000
ENDCHAR
STARTCHAR char182
ENCODING 182
SWIDTH 1383 0
DWIDTH 21 0
BBX 21 39 0 -6
BITMAP
000000
000000
000000
000000
000000
000000
000000
000000
000000
1FFE00
1FFE00
1FFE00
FF8E00
FF8E00
FF8E00
FF8E00
FF8E00
FF8E00
FF8E00
FF8E00
FF8E00
1F8E00
1F8E00
1F8E00
038E00
038E00
038E00
038E00
038E00
038E00
038E00
038E00
038E00
038E00
038E00
038E00
000000
000000
000000
ENDCHAR
STARTCHAR char183
ENCODING 183
SWIDTH 1383 0
DWIDTH 21 0
BBX 21 39 0 -6
BITMAP
000000
000000
000000
000000
000000
000000
000000
000000
000000
000000
000000
000000
000000
000000
000000
000000
000000
000000
000000
000000
000000
03F000
03F000
03F000
03F000
03F000
03F000
000000
000000
000000
000000
000000
000000
000000
000000
000000
000000
000000
000000
ENDCHAR
STARTCHAR char184
ENCODING 184
SWIDTH 1383 0
DWIDTH 21 0
BBX 21 39 0 -6
BITMAP
000000
000000
000000
000000
000000
000000
000000
000000
000000
000000
000000
000000
000000
000000
000000
000000
000000
000000
000000
000000
000000
000000
000000
000000
038000
038000
038000
007000
007000
007000
1FF000
1FF000
1FF000
000000
000000
000000
000000
000000
000000
ENDCHAR
STARTCHAR char185
ENCODING 185
SWIDTH 1383 0
DWIDTH 21 0
BBX 21 39 0 -6
BITMAP
000000
000000
000000
000000
000000
000000
FC0000
FC0000
FC0000
1C0000
1C0000
1C0000
1C0000
1C0000
1C0000
1C7000
1C7000
1C7000
1C7000
1C7000
1C7000
FFF000
FFF000
FFF000
000000
000000
000000
000000
000000
000000
000000
000000
000000
000000
000000
000000
000000
000000
000000
ENDCHAR
STARTCHAR char186
ENCODING 186
SWIDTH 1383 0
DWIDTH 21 0
BBX 21 39 0 -6
BITMAP
000000
000000
000000
000000
000000
000000
03F000
03F000
03F000
1C0E00
1C0E00
1C0E00
1C0E00
1C0E00
1C0E00
03F000
03F000
03F000
000000
000000
000000
000000
000000
000000
000000
000000
000000
000000
000000
000000
000000
000000
000000
000000
000000
000000
000000
000000
000000
ENDCHAR
STARTCHAR char187
ENCODING 187
SWIDTH 1383 0
DWIDTH 21 0
BBX 21 39 0 -6
BITMAP
000000
000000
000000
000000
000000
000000
000000
000000
000000
000000
000000
000000
000000
000000
000000
E07000
E07000
E07000
1C0E00
1C0E00
1C0E00
E07000
E07000
E07000
000000
000000
000000
000000
000000
000000
000000
000000
000000
000000
000000
000000
000000
000000
000000
ENDCHAR
STARTCHAR char188
ENCODING 188
SWIDTH 1383 0
DWIDTH 21 0
BBX 21 39 0 -6
BITMAP
000000
000000
000000
FC0000
FC0000
FC0000
1C0000
1C0000
1C0000
1C0000
1C0000
1C0000
1C0000
1C0000
1C0000
FF81C0
FF81C0
FF81C0
0071C0
0071C0
0071C0
0071C0
0071C0
0071C0
007FC0
007FC0
007FC0
0001C0
0001C0
0001C0
0001C0
0001C0
0001C0
000000
000000
000000
000000
000000
000000
ENDCHAR
STARTCHAR char189
ENCODING 189
SWIDTH 1383 0
DWIDTH 21 0
BBX 21 39 0 -6
BITMAP
000000
000000
000000
FC0000
FC0000
FC0000
1C0000
1C0000
1C0000
1C0000
1C0000
1C0000
1C0000
1C0000
1C0000
FF8000
FF8000
FF8000
007FF8
007FF8
007FF8
000038
000038
000038
007FF8
007FF8
007FF8
007000
007000
007000
007FF8
007FF8
007FF8
000000
000000
000000
000000
000000
000000
ENDCHAR
STARTCHAR char190
ENCODING 190
SWIDTH 1383 0
DWIDTH 21 0
BBX 21 39 0 -6
BITMAP
000000
000000
000000
FFF000
FFF000
FFF000
007000
007000
007000
1FF000
1FF000
1FF000
007000
007000
007000
FFF1C0
FFF1C0
FFF1C0
0071C0
0071C0
0071C0
0071C0
0071C0
0071C0
007FC0
007FC0
007FC0
0001C0
0001C0
0001C0
0001C0
0001C0
0001C0
000000
000000
000000
000000
000000
000000
ENDCHAR
STARTCHAR char191
ENCODING 191
SWIDTH 1383 0
DWIDTH 21 0
BBX 21 39 0 -6
BITMAP
000000
000000
000000
000000
000000
000000
038000
038000
038000
038000
038000
038000
000000
000000
000000
038000
038000
038000
038000
038000
038000
FF8000
FF8000
FF8000
E00000
E00000
E00000
E00E00
E00E00
E00E00
E00E00
E00E00
E00E00
FFFE00
FFFE00
FFFE00
000000
000000
000000
ENDCHAR
STARTCHAR char192
ENCODING 192
SWIDTH 1383 0
DWIDTH 21 0
BBX 21 39 0 -6
BITMAP
000000
000000
000000
1C0000
1C0000
1C0000
038000
038000
038000
1FFE00
1FFE00
1FFE00
E00E00
E00E00
E00E00
E00E00
E00E00
E00E00
E00E00
E00E00
E00E00
E00E00
E00E00
E00E00
FFFE00
FFFE00
FFFE00
E00E00
E00E00
E00E00
E00E00
E00E00
E00E00
000000
000000
000000
000000
000000
000000
ENDCHAR
STARTCHAR char193
ENCODING 193
SWIDTH 1383 0
DWIDTH 21 0
BBX 21 39 0 -6
BITMAP
000000
000000
000000
007000
007000
007000
038000
038000
038000
1FFE00
1FFE00
1FFE00
E00E00
E00E00
E00E00
E00E00
E00E00
E00E00
E00E00
E00E00
E00E00
E00E00
E00E00
E00E00
FFFE00
FFFE00
FFFE00
E00E00
E00E00
E00E00
E00E00
E00E00
E00E00
000000
000000
000000
000000
000000
000000
ENDCHAR
STARTCHAR char194
ENCODING 194
SWIDTH 1383 0
DWIDTH 21 0
BBX 21 39 0 -6
BITMAP
038000
038000
038000
1C7000
1C7000
1C7000
000000
000000
000000
1FFE00
1FFE00
1FFE00
E00E00
E00E00
E00E00
E00E00
E00E00
E00E00
E00E00
E00E00
E00E00
E00E00
E00E00
E00E00
FFFE00
FFFE00
FFFE00
E00E00
E00E00
E00E00
E00E00
E00E00
E00E00
000000
000000
000000
000000
000000
000000
ENDCHAR
STARTCHAR char195
ENCODING 195
SWIDTH 1383 0
DWIDTH 21 0
BBX 21 39 0 -6
BITMAP
038E00
038E00
038E00
1C7000
1C7000
1C7000
000000
000000
000000
1FFE00
1FFE00
1FFE00
E00E00
E00E00
E00E00
E00E00
E00E00
E00E00
E00E00
E00E00
E00E00
E00E00
E00E00
E00E00
FFFE00
FFFE00
FFFE00
E00E00
E00E00
E00E00
E00E00
E00E00
E00E00
000000
000000
000000
000000
000000
000000
ENDCHAR
STARTCHAR char196
ENCODING 196
SWIDTH 1383 0
DWIDTH 21 0
BBX 21 39 0 -6
BITMAP
000000
000000
000000
1C7000
1C7000
1C7000
000000
000000
000000
1FFE00
1FFE00
1FFE00
E00E00
E00E00
E00E00
E00E00
E00E00
E00E00
E00E00
E00E00
E00E00
E00E00
E00E00
E00E00
FFFE00
FFFE00
FFFE00
E00E00
E00E00
E00E00
E00E00
E00E00
E00E00
000000
000000
000000
000000
000000
000000
ENDCHAR
STARTCHAR char197
ENCODING 197
SWIDTH 1383 0
DWIDTH 21 0
BBX 21 39 0 -6
BITMAP
038000
038000
038000
1C7000
1C7000
1C7000
038000
038000
038000
1FFE00
1FFE00
1FFE00
E00E00
E00E00
E00E00
E00E00
E00E00
E00E00
E00E00
E00E00
E00E00
E00E00
E00E00
E00E00
FFFE00
FFFE00
FFFE00
E00E00
E00E00
E00E00
E00E00
E00E00
E00E00
000000
000000
000000
000000
000000
000000
ENDCHAR
STARTCHAR char198
ENCODING 198
SWIDTH 1383 0
DWIDTH 21 0
BBX 21 39 0 -6
BITMAP
000000
000000
000000
000000
000000
000000
000000
000000
000000
1FFFF8
1FFFF8
1FFFF8
E07000
E07000
E07000
E07000
E07000
E07000
E07FC0
E07FC0
E07FC0
E07000
E07000
E07000
FFF000
FFF000
FFF000
E07000
E07000
E07000
E07FF8
E07FF8
E07FF8
000000
000000
000000
000000
000000
000000
ENDCHAR
STARTCHAR char199
ENCODING 199
SWIDTH 1383 0
DWIDTH 21 0
BBX 21 39 0 -6
BITMAP
000000
000000
000000
000000
000000
000000
000000
000000
000000
1FFE00
1FFE00
1FFE00
E00000
E00000
E00000
E00000
E00000
E00000
E00000
E00000
E00000
E00000
E00000
E00000
E00000
E00000
E00000
E00000
E00000
E00000
FFFE00
FFFE00
FFFE00
007000
007000
007000
03F000
03F000
03F000
ENDCHAR
STARTCHAR char200
ENCODING 200
SWIDTH 1383 0
DWIDTH 21 0
BBX 21 39 0 -6
BITMAP
000000
000000
000000
1C0000
1C0000
1C0000
038000
038000
038000
FFFE00
FFFE00
FFFE00
E00000
E00000
E00000
E00000
E00000
E00000
FFF000
FFF000
FFF000
E00000
E00000
E00000
E00000
E00000
E00000
E00000
E00000
E00000
FFFE00
FFFE00
FFFE00
000000
000000
000000
000000
000000
000000
ENDCHAR
STARTCHAR char201
ENCODING 201
SWIDTH 1383 0
DWIDTH 21 0
BBX 21 39 0 -6
BITMAP
000000
000000
000000
007000
007000
007000
038000
038000
038000
FFFE00
FFFE00
FFFE00
E00000
E00000
E00000
E00000
E00000
E00000
FFF000
FFF000
FFF000
E00000
E00000
E00000
E00000
E00000
E00000
E00000
E00000
E00000
FFFE00
FFFE00
FFFE00
000000
000000
000000
000000
000000
000000
ENDCHAR
STARTCHAR char202
ENCODING 202
SWIDTH 1383 0
DWIDTH 21 0
BBX 21 39 0 -6
BITMAP
038000
038000
038000
1C7000
1C7000
1C7000
000000
000000
000000
FFFE00
FFFE00
FFFE00
E00000
E00000
E00000
E00000
E00000
E00000
FFF000
FFF000
FFF000
E00000
E00000
E00000
E00000
E00000
E00000
E00000
E00000
E00000
FFFE00
FFFE00
FFFE00
000000
000000
000000
000000
000000
000000
ENDCHAR
STARTCHAR char203
ENCODING 203
SWIDTH 1383 0
DWIDTH 21 0
BBX 21 39 0 -6
BITMAP
000000
000000
000000
1C7000
1C7000
1C7000
000000
000000
000000
FFFE00
FFFE00
FFFE00
E00000
E00000
E00000
E00000
E00000
E00000
FFF000
FFF000
FFF000
E00000
E00000
E00000
E00000
E00000
E00000
E00000
E00000
E00000
FFFE00
FFFE00
FFFE00
000000
000000
000000
000000
000000
000000
ENDCHAR
STARTCHAR char204
ENCODING 204
SWIDTH 1383 0
DWIDTH 21 0
BBX 21 39 0 -6
BITMAP
000000
000000
000000
1C0000
1C0000
1C0000
038000
038000
038000
FFFE00
FFFE00
FFFE00
038000
038000
038000
038000
038000
038000
038000
038000
038000
038000
038000
038000
038000
038000
038000
038000
038000
038000
FFFE00
FFFE00
FFFE00
000000
000000
000000
000000
000000
000000
ENDCHAR
STARTCHAR char205
ENCODING 205
SWIDTH 1383 0
DWIDTH 21 0
BBX 21 39 0 -6
BITMAP
000000
000000
000000
007000
007000
007000
038000
038000
038000
FFFE00
FFFE00
FFFE00
038000
038000
038000
038000
038000
038000
038000
038000
038000
038000
038000
038000
038000
038000
038000
038000
038000
038000
FFFE00
FFFE00
FFFE00
000000
000000
000000
000000
000000
000000
ENDCHAR
STARTCHAR char206
ENCODING 206
SWIDTH 1383 0
DWIDTH 21 0
BBX 21 39 0 -6
BITMAP
038000
038000
038000
1C7000
1C7000
1C7000
000000
000000
000000
FFFE00
FFFE00
FFFE00
038000
038000
038000
038000
038000
038000
038000
038000
038000
038000
038000
038000
038000
038000
038000
038000
038000
038000
FFFE00
FFFE00
FFFE00
000000
000000
000000
000000
000000
000000
ENDCHAR
STARTCHAR char207
ENCODING 207
SWIDTH 1383 0
DWIDTH 21 0
BBX 21 39 0 -6
BITMAP
000000
000000
000000
1C7000
1C7000
1C7000
000000
000000
000000
FFFE00
FFFE00
FFFE00
038000
038000
038000
038000
038000
038000
038000
038000
038000
038000
038000
038000
038000
038000
038000
038000
038000
038000
FFFE00
FFFE00
FFFE00
000000
000000
000000
000000
000000
000000
ENDCHAR
STARTCHAR char208
ENCODING 208
SWIDTH 1383 0
DWIDTH 21 0
BBX 21 39 0 -6
BITMAP
000000
000000
000000
000000
000000
000000
000000
000000
000000
FFFE00
FFFE00
FFFE00
1C01C0
1C01C0
1C01C0
1C01C0
1C01C0
1C01C0
FFF1C0
FFF1C0
FFF1C0
1C01C0
1C01C0
1C01C0
1C01C0
1C01C0
1C01C0
1C01C0
1C01C0
1C01C0
FFFE00
FFFE00
FFFE00
000000
000000
000000
000000
000000
000000
ENDCHAR
STARTCHAR char78
ENCODING 209
SWIDTH 1383 0
DWIDTH 21 0
BBX 21 39 0 -6
BITMAP
000000
000000
000000
038E00
038E00
038E00
1C7000
1C7000
1C7000
E00E00
E00E00
E00E00
E00E00
E00E00
E00E00
FC0E00
FC0E00
FC0E00
FF8E00
FF8E00
FF8E00
E3FE00
E3FE00
E3FE00
E07E00
E07E00
E07E00
E00E00
E00E00
E00E00
E00E00
E00E00
E00E00
000000
000000
000000
000000
000000
000000
ENDCHAR
STARTCHAR char210
ENCODING 210
SWIDTH 1383 0
DWIDTH 21 0
BBX 21 39 0 -6
BITMAP
000000
000000
000000
1C0000
1C0000
1C0000
038000
038000
038000
FFFE00
FFFE00
FFFE00
E00E00
E00E00
E00E00
E00E00
E00E00
E00E00
E00E00
E00E00
E00E00
E00E00
E00E00
E00E00
E00E00
E00E00
E00E00
E00E00
E00E00
E00E00
FFFE00
FFFE00
FFFE00
000000
000000
000000
000000
000000
000000
ENDCHAR
STARTCHAR char211
ENCODING 211
SWIDTH 1383 0
DWIDTH 21 0
BBX 21 39 0 -6
BITMAP
000000
000000
000000
007000
007000
007000
038000
038000
038000
FFFE00
FFFE00
FFFE00
E00E00
E00E00
E00E00
E00E00
E00E00
E00E00
E00E00
E00E00
E00E00
E00E00
E00E00
E00E00
E00E00
E00E00
E00E00
E00E00
E00E00
E00E00
FFFE00
FFFE00
FFFE00
000000
000000
000000
000000
000000
000000
ENDCHAR
STARTCHAR char212
ENCODING 212
SWIDTH 1383 0
DWIDTH 21 0
BBX 21 39 0 -6
BITMAP
038000
038000
038000
1C7000
1C7000
1C7000
000000
000000
000000
FFFE00
FFFE00
FFFE00
E00E00
E00E00
E00E00
E00E00
E00E00
E00E00
E00E00
E00E00
E00E00
E00E00
E00E00
E00E00
E00E00
E00E00
E00E00
E00E00
E00E00
E00E00
FFFE00
FFFE00
FFFE00
000000
000000
000000
000000
000000
000000
ENDCHAR
STARTCHAR char213
ENCODING 213
SWIDTH 1383 0
DWIDTH 21 0
BBX 21 39 0 -6
BITMAP
038E00
038E00
038E00
1C7000
1C7000
1C7000
000000
000000
000000
FFFE00
FFFE00
FFFE00
E00E00
E00E00
E00E00
E00E00
E00E00
E00E00
E00E00
E00E00
E00E00
E00E00
E00E00
E00E00
E00E00
E00E00
E00E00
E00E00
E00E00
E00E00
FFFE00
FFFE00
FFFE00
000000
000000
000000
000000
000000
000000
ENDCHAR
STARTCHAR char214
ENCODING 214
SWIDTH 1383 0
DWIDTH 21 0
BBX 21 39 0 -6
BITMAP
000000
000000
000000
1C7000
1C7000
1C7000
000000
000000
000000
FFFE00
FFFE00
FFFE00
E00E00
E00E00
E00E00
E00E00
E00E00
E00E00
E00E00
E00E00
E00E00
E00E00
E00E00
E00E00
E00E00
E00E00
E00E00
E00E00
E00E00
E00E00
FFFE00
FFFE00
FFFE00
000000
000000
000000
000000
000000
000000
ENDCHAR
STARTCHAR char215
ENCODING 215
SWIDTH 1383 0
DWIDTH 21 0
BBX 21 39 0 -6
BITMAP
000000
000000
000000
000000
000000
000000
000000
000000
000000
000000
000000
000000
000000
000000
000000
1C7000
1C7000
1C7000
038000
038000
038000
1C7000
1C7000
1C7000
000000
000000
000000
000000
000000
000000
000000
000000
000000
000000
000000
000000
000000
000000
000000
ENDCHAR
STARTCHAR char216
ENCODING 216
SWIDTH 1383 0
DWIDTH 21 0
BBX 21 39 0 -6
BITMAP
000000
000000
000000
000000
000000
000000
000E00
000E00
000E00
FFFE00
FFFE00
FFFE00
E07E00
E07E00
E07E00
E07E00
E07E00
E07E00
E38E00
E38E00
E38E00
E38E00
E38E00
E38E00
FC0E00
FC0E00
FC0E00
FC0E00
FC0E00
FC0E00
FFFE00
FFFE00
FFFE00
E00000
E00000
E00000
000000
000000
000000
ENDCHAR
STARTCHAR char217
ENCODING 217
SWIDTH 1383 0
DWIDTH 21 0
BBX 21 39 0 -6
BITMAP
000000
000000
000000
1C0000
1C0000
1C0000
038000
038000
038000
E00E00
E00E00
E00E00
E00E00
E00E00
E00E00
E00E00
E00E00
E00E00
E00E00
E00E00
E00E00
E00E00
E00E00
E00E00
E00E00
E00E00
E00E00
E00E00
E00E00
E00E00
FFFE00
FFFE00
FFFE00
000000
000000
000000
000000
000000
000000
ENDCHAR
STARTCHAR char217
ENCODING 218
SWIDTH 1383 0
DWIDTH 21 0
BBX 21 39 0 -6
BITMAP
000000
000000
000000
007000
007000
007000
038000
038000
038000
E00E00
E00E00
E00E00
E00E00
E00E00
E00E00
E00E00
E00E00
E00E00
E00E00
E00E00
E00E00
E00E00
E00E00
E00E00
E00E00
E00E00
E00E00
E00E00
E00E00
E00E00
FFFE00
FFFE00
FFFE00
000000
000000
000000
000000
000000
000000
ENDCHAR
STARTCHAR char217
ENCODING 219
SWIDTH 1383 0
DWIDTH 21 0
BBX 21 39 0 -6
BITMAP
038000
038000
038000
1C7000
1C7000
1C7000
000000
000000
000000
E00E00
E00E00
E00E00
E00E00
E00E00
E00E00
E00E00
E00E00
E00E00
E00E00
E00E00
E00E00
E00E00
E00E00
E00E00
E00E00
E00E00
E00E00
E00E00
E00E00
E00E00
FFFE00
FFFE00
FFFE00
000000
000000
000000
000000
000000
000000
ENDCHAR
STARTCHAR char217
ENCODING 220
SWIDTH 1383 0
DWIDTH 21 0
BBX 21 39 0 -6
BITMAP
000000
000000
000000
1C7000
1C7000
1C7000
000000
000000
000000
E00E00
E00E00
E00E00
E00E00
E00E00
E00E00
E00E00
E00E00
E00E00
E00E00
E00E00
E00E00
E00E00
E00E00
E00E00
E00E00
E00E00
E00E00
E00E00
E00E00
E00E00
FFFE00
FFFE00
FFFE00
000000
000000
000000
000000
000000
000000
ENDCHAR
STARTCHAR char221
ENCODING 221
SWIDTH 1383 0
DWIDTH 21 0
BBX 21 39 0 -6
BITMAP
000000
000000
000000
007000
007000
007000
038000
038000
038000
E00E00
E00E00
E00E00
E00E00
E00E00
E00E00
E00E00
E00E00
E00E00
FC7E00
FC7E00
FC7E00
1FF000
1FF000
1FF000
038000
038000
038000
038000
038000
038000
038000
038000
038000
000000
000000
000000
000000
000000
000000
ENDCHAR
STARTCHAR char222
ENCODING 222
SWIDTH 1383 0
DWIDTH 21 0
BBX 21 39 0 -6
BITMAP
000000
000000
000000
000000
000000
000000
E00000
E00000
E00000
E00000
E00000
E00000
FFFE00
FFFE00
FFFE00
E00E00
E00E00
E00E00
E00E00
E00E00
E00E00
E00E00
E00E00
E00E00
FFFE00
FFFE00
FFFE00
E00000
E00000
E00000
E00000
E00000
E00000
000000
000000
000000
000000
000000
000000
ENDCHAR
STARTCHAR char223
ENCODING 223
SWIDTH 1383 0
DWIDTH 21 0
BBX 21 39 0 -6
BITMAP
000000
000000
000000
000000
000000
000000
1FF000
1FF000
1FF000
E07000
E07000
E07000
E07000
E07000
E07000
E07000
E07000
E07000
E00E00
E00E00
E00E00
E00E00
E00E00
E00E00
E00E00
E00E00
E00E00
E00E00
E00E00
E00E00
E07E00
E07E00
E07E00
E00000
E00000
E00000
E00000
E00000
E00000
ENDCHAR
STARTCHAR char97
ENCODING 224
SWIDTH 1383 0
DWIDTH 21 0
BBX 21 39 0 -6
BITMAP
000000
000000
000000
000000
000000
000000
038000
038000
038000
007000
007000
007000
000000
000000
000000
1FFE00
1FFE00
1FFE00
000E00
000E00
000E00
FFFE00
FFFE00
FFFE00
E00E00
E00E00
E00E00
E00E00
E00E00
E00E00
FFFE00
FFFE00
FFFE00
000000
000000
000000
000000
000000
000000
ENDCHAR
STARTCHAR char97
ENCODING 225
SWIDTH 1383 0
DWIDTH 21 0
BBX 21 39 0 -6
BITMAP
000000
000000
000000
000000
000000
000000
007000
007000
007000
038000
038000
038000
000000
000000
000000
1FFE00
1FFE00
1FFE00
000E00
000E00
000E00
FFFE00
FFFE00
FFFE00
E00E00
E00E00
E00E00
E00E00
E00E00
E00E00
FFFE00
FFFE00
FFFE00
000000
000000
000000
000000
000000
000000
ENDCHAR
STARTCHAR char97
ENCODING 226
SWIDTH 1383 0
DWIDTH 21 0
BBX 21 39 0 -6
BITMAP
000000
000000
000000
000000
000000
000000
038000
038000
038000
1C7000
1C7000
1C7000
000000
000000
000000
1FFE00
1FFE00
1FFE00
000E00
000E00
000E00
FFFE00
FFFE00
FFFE00
E00E00
E00E00
E00E00
E00E00
E00E00
E00E00
FFFE00
FFFE00
FFFE00
000000
000000
000000
000000
000000
000000
ENDCHAR
STARTCHAR char97
ENCODING 227
SWIDTH 1383 0
DWIDTH 21 0
BBX 21 39 0 -6
BITMAP
000000
000000
000000
000000
000000
000000
038E00
038E00
038E00
1C7000
1C7000
1C7000
000000
000000
000000
1FFE00
1FFE00
1FFE00
000E00
000E00
000E00
FFFE00
FFFE00
FFFE00
E00E00
E00E00
E00E00
E00E00
E00E00
E00E00
FFFE00
FFFE00
FFFE00
000000
000000
000000
000000
000000
000000
ENDCHAR
STARTCHAR char97
ENCODING 228
SWIDTH 1383 0
DWIDTH 21 0
BBX 21 39 0 -6
BITMAP
000000
000000
000000
000000
000000
000000
000000
000000
000000
1C7000
1C7000
1C7000
000000
000000
000000
1FFE00
1FFE00
1FFE00
000E00
000E00
000E00
FFFE00
FFFE00
FFFE00
E00E00
E00E00
E00E00
E00E00
E00E00
E00E00
FFFE00
FFFE00
FFFE00
000000
000000
000000
000000
000000
000000
ENDCHAR
STARTCHAR char97
ENCODING 229
SWIDTH 1383 0
DWIDTH 21 0
BBX 21 39 0 -6
BITMAP
000000
000000
000000
03F000
03F000
03F000
1C0E00
1C0E00
1C0E00
1C0E00
1C0E00
1C0E00
03F000
03F000
03F000
1FFE00
1FFE00
1FFE00
000E00
000E00
000E00
FFFE00
FFFE00
FFFE00
E00E00
E00E00
E00E00
E00E00
E00E00
E00E00
FFFE00
FFFE00
FFFE00
000000
000000
000000
000000
000000
000000
ENDCHAR
STARTCHAR char97
ENCODING 230
SWIDTH 1383 0
DWIDTH 21 0
BBX 21 39 0 -6
BITMAP
000000
000000
000000
000000
000000
000000
000000
000000
000000
000000
000000
000000
000000
000000
000000
1FFFF8
1FFFF8
1FFFF8
007038
007038
007038
FFF038
FFF038
FFF038
E07FF8
E07FF8
E07FF8
E07000
E07000
E07000
FFFFF8
FFFFF8
FFFFF8
000000
000000
000000
000000
000000
000000
ENDCHAR
STARTCHAR char231
ENCODING 231
SWIDTH 1383 0
DWIDTH 21 0
BBX 21 39 0 -6
BITMAP
000000
000000
000000
000000
000000
000000
000000
000000
000000
000000
000000
000000
000000
000000
000000
1FFE00
1FFE00
1FFE00
E00000
E00000
E00000
E00000
E00000
E00000
E00000
E00000
E00000
E00000
E00000
E00000
FFFE00
FFFE00
FFFE00
007000
007000
007000
03F000
03F000
03F000
ENDCHAR
STARTCHAR char101
ENCODING 232
SWIDTH 1383 0
DWIDTH 21 0
BBX 21 39 0 -6
BITMAP
000000
000000
000000
000000
000000
000000
000000
000000
000000
1C0000
1C0000
1C0000
038000
038000
038000
FFFE00
FFFE00
FFFE00
E00E00
E00E00
E00E00
E00E00
E00E00
E00E00
FFFE00
FFFE00
FFFE00
E00000
E00000
E00000
FFFE00
FFFE00
FFFE00
000000
000000
000000
000000
000000
000000
ENDCHAR
STARTCHAR char101
ENCODING 233
SWIDTH 1383 0
DWIDTH 21 0
BBX 21 39 0 -6
BITMAP
000000
000000
000000
000000
000000
000000
000000
000000
000000
007000
007000
007000
038000
038000
038000
FFFE00
FFFE00
FFFE00
E00E00
E00E00
E00E00
E00E00
E00E00
E00E00
FFFE00
FFFE00
FFFE00
E00000
E00000
E00000
FFFE00
FFFE00
FFFE00
000000
000000
000000
000000
000000
000000
ENDCHAR
STARTCHAR char101
ENCODING 234
SWIDTH 1383 0
DWIDTH 21 0
BBX 21 39 0 -6
BITMAP
000000
000000
000000
000000
000000
000000
038000
038000
038000
1C7000
1C7000
1C7000
000000
000000
000000
FFFE00
FFFE00
FFFE00
E00E00
E00E00
E00E00
E00E00
E00E00
E00E00
FFFE00
FFFE00
FFFE00
E00000
E00000
E00000
FFFE00
FFFE00
FFFE00
000000
000000
000000
000000
000000
000000
ENDCHAR
STARTCHAR char101
ENCODING 235
SWIDTH 1383 0
DWIDTH 21 0
BBX 21 39 0 -6
BITMAP
000000
000000
000000
000000
000000
000000
000000
000000
000000
1C7000
1C7000
1C7000
000000
000000
000000
FFFE00
FFFE00
FFFE00
E00E00
E00E00
E00E00
E00E00
E00E00
E00E00
FFFE00
FFFE00
FFFE00
E00000
E00000
E00000
FFFE00
FFFE00
FFFE00
000000
000000
000000
000000
000000
000000
ENDCHAR
STARTCHAR char105
ENCODING 236
SWIDTH 1383 0
DWIDTH 21 0
BBX 21 39 0 -6
BITMAP
000000
000000
000000
000000
000000
000000
1C0000
1C0000
1C0000
038000
038000
038000
000000
000000
000000
1F8000
1F8000
1F8000
038000
038000
038000
038000
038000
038000
038000
038000
038000
038000
038000
038000
1FF000
1FF000
1FF000
000000
000000
000000
000000
000000
000000
ENDCHAR
STARTCHAR char105
ENCODING 237
SWIDTH 1383 0
DWIDTH 21 0
BBX 21 39 0 -6
BITMAP
000000
000000
000000
000000
000000
000000
007000
007000
007000
038000
038000
038000
000000
000000
000000
1F8000
1F8000
1F8000
038000
038000
038000
038000
038000
038000
038000
038000
038000
038000
038000
038000
1FF000
1FF000
1FF000
000000
000000
000000
000000
000000
000000
ENDCHAR
STARTCHAR char105
ENCODING 238
SWIDTH 1383 0
DWIDTH 21 0
BBX 21 39 0 -6
BITMAP
000000
000000
000000
000000
000000
000000
038000
038000
038000
1C7000
1C7000
1C7000
000000
000000
000000
1F8000
1F8000
1F8000
038000
038000
038000
038000
038000
038000
038000
038000
038000
038000
038000
038000
1FF000
1FF000
1FF000
000000
000000
000000
000000
000000
000000
ENDCHAR
STARTCHAR char105
ENCODING 239
SWIDTH 1383 0
DWIDTH 21 0
BBX 21 39 0 -6
BITMAP
000000
000000
000000
000000
000000
000000
000000
000000
000000
1C7000
1C7000
1C7000
000000
000000
000000
1F8000
1F8000
1F8000
038000
038000
038000
038000
038000
038000
038000
038000
038000
038000
038000
038000
1FF000
1FF000
1FF000
000000
000000
000000
000000
000000
000000
ENDCHAR
STARTCHAR char240
ENCODING 240
SWIDTH 1383 0
DWIDTH 21 0
BBX 21 39 0 -6
BITMAP
000000
000000
000000
000000
000000
000000
038000
038000
038000
007E00
007E00
007E00
03F000
03F000
03F000
000E00
000E00
000E00
000E00
000E00
000E00
FFFE00
FFFE00
FFFE00
E00E00
E00E00
E00E00
E00E00
E00E00
E00E00
FFFE00
FFFE00
FFFE00
000000
000000
000000
000000
000000
000000
ENDCHAR
STARTCHAR char241
ENCODING 241
SWIDTH 1383 0
DWIDTH 21 0
BBX 21 39 0 -6
BITMAP
000000
000000
000000
000000
000000
000000
038E00
038E00
038E00
1C7000
1C7000
1C7000
000000
000000
000000
FFFE00
FFFE00
FFFE00
E00E00
E00E00
E00E00
E00E00
E00E00
E00E00
E00E00
E00E00
E00E00
E00E00
E00E00
E00E00
E00E00
E00E00
E00E00
000000
000000
000000
000000
000000
000000
ENDCHAR
STARTCHAR char111
ENCODING 242
SWIDTH 1383 0
DWIDTH 21 0
BBX 21 39 0 -6
BITMAP
000000
000000
000000
000000
000000
000000
000000
000000
000000
1C0000
1C0000
1C0000
038000
038000
038000
FFFE00
FFFE00
FFFE00
E00E00
E00E00
E00E00
E00E00
E00E00
E00E00
E00E00
E00E00
E00E00
E00E00
E00E00
E00E00
FFFE00
FFFE00
FFFE00
000000
000000
000000
000000
000000
000000
ENDCHAR
STARTCHAR char111
ENCODING 243
SWIDTH 1383 0
DWIDTH 21 0
BBX 21 39 0 -6
BITMAP
000000
000000
000000
000000
000000
000000
000000
000000
000000
007000
007000
007000
038000
038000
038000
FFFE00
FFFE00
FFFE00
E00E00
E00E00
E00E00
E00E00
E00E00
E00E00
E00E00
E00E00
E00E00
E00E00
E00E00
E00E00
FFFE00
FFFE00
FFFE00
000000
000000
000000
000000
000000
000000
ENDCHAR
STARTCHAR char111
ENCODING 244
SWIDTH 1383 0
DWIDTH 21 0
BBX 21 39 0 -6
BITMAP
000000
000000
000000
000000
000000
000000
038000
038000
038000
1C7000
1C7000
1C7000
000000
000000
000000
FFFE00
FFFE00
FFFE00
E00E00
E00E00
E00E00
E00E00
E00E00
E00E00
E00E00
E00E00
E00E00
E00E00
E00E00
E00E00
FFFE00
FFFE00
FFFE00
000000
000000
000000
000000
000000
000000
ENDCHAR
STARTCHAR char111
ENCODING 245
SWIDTH 1383 0
DWIDTH 21 0
BBX 21 39 0 -6
BITMAP
000000
000000
000000
000000
000000
000000
038E00
038E00
038E00
1C7000
1C7000
1C7000
000000
000000
000000
FFFE00
FFFE00
FFFE00
E00E00
E00E00
E00E00
E00E00
E00E00
E00E00
E00E00
E00E00
E00E00
E00E00
E00E00
E00E00
FFFE00
FFFE00
FFFE00
000000
000000
000000
000000
000000
000000
ENDCHAR
STARTCHAR char111
ENCODING 246
SWIDTH 1383 0
DWIDTH 21 0
BBX 21 39 0 -6
BITMAP
000000
000000
000000
000000
000000
000000
000000
000000
000000
1C7000
1C7000
1C7000
000000
000000
000000
FFFE00
FFFE00
FFFE00
E00E00
E00E00
E00E00
E00E00
E00E00
E00E00
E00E00
E00E00
E00E00
E00E00
E00E00
E00E00
FFFE00
FFFE00
FFFE00
000000
000000
000000
000000
000000
000000
ENDCHAR
STARTCHAR char247
ENCODING 247
SWIDTH 1383 0
DWIDTH 21 0
BBX 21 39 0 -6
BITMAP
000000
000000
000000
000000
000000
000000
000000
000000
000000
000000
000000
000000
000000
000000
000000
038000
038000
038000
000000
000000
000000
FFFE00
FFFE00
FFFE00
000000
000000
000000
038000
038000
038000
000000
000000
000000
000000
000000
000000
000000
000000
000000
ENDCHAR
STARTCHAR char111
ENCODING 248
SWIDTH 1383 0
DWIDTH 21 0
BBX 21 39 0 -6
BITMAP
000000
000000
000000
000000
000000
000000
000000
000000
000000
000000
000000
000000
000E00
000E00
000E00
FFFE00
FFFE00
FFFE00
E07E00
E07E00
E07E00
E3FE00
E3FE00
E3FE00
FF8E00
FF8E00
FF8E00
FC0E00
FC0E00
FC0E00
FFFE00
FFFE00
FFFE00
E00000
E00000
E00000
000000
000000
000000
ENDCHAR
STARTCHAR char249
ENCODING 249
SWIDTH 1383 0
DWIDTH 21 0
BBX 21 39 0 -6
BITMAP
000000
000000
000000
000000
000000
000000
000000
000000
000000
1C0000
1C0000
1C0000
038000
038000
038000
E00E00
E00E00
E00E00
E00E00
E00E00
E00E00
E00E00
E00E00
E00E00
E00E00
E00E00
E00E00
E00E00
E00E00
E00E00
FFFE00
FFFE00
FFFE00
000000
000000
000000
000000
000000
000000
ENDCHAR
STARTCHAR char249
ENCODING 250
SWIDTH 1383 0
DWIDTH 21 0
BBX 21 39 0 -6
BITMAP
000000
000000
000000
000000
000000
000000
000000
000000
000000
007000
007000
007000
038000
038000
038000
E00E00
E00E00
E00E00
E00E00
E00E00
E00E00
E00E00
E00E00
E00E00
E00E00
E00E00
E00E00
E00E00
E00E00
E00E00
FFFE00
FFFE00
FFFE00
000000
000000
000000
000000
000000
000000
ENDCHAR
STARTCHAR char249
ENCODING 251
SWIDTH 1383 0
DWIDTH 21 0
BBX 21 39 0 -6
BITMAP
000000
000000
000000
000000
000000
000000
038000
038000
038000
1C7000
1C7000
1C7000
000000
000000
000000
E00E00
E00E00
E00E00
E00E00
E00E00
E00E00
E00E00
E00E00
E00E00
E00E00
E00E00
E00E00
E00E00
E00E00
E00E00
FFFE00
FFFE00
FFFE00
000000
000000
000000
000000
000000
000000
ENDCHAR
STARTCHAR char249
ENCODING 252
SWIDTH 1383 0
DWIDTH 21 0
BBX 21 39 0 -6
BITMAP
000000
000000
000000
000000
000000
000000
000000
000000
000000
1C7000
1C7000
1C7000
000000
000000
000000
E00E00
E00E00
E00E00
E00E00
E00E00
E00E00
E00E00
E00E00
E00E00
E00E00
E00E00
E00E00
E00E00
E00E00
E00E00
FFFE00
FFFE00
FFFE00
000000
000000
000000
000000
000000
000000
ENDCHAR
STARTCHAR char121
ENCODING 253
SWIDTH 1383 0
DWIDTH 21 0
BBX 21 39 0 -6
BITMAP
000000
000000
000000
000000
000000
000000
000000
000000
000000
007000
007000
007000
038000
038000
038000
E00E00
E00E00
E00E00
E00E00
E00E00
E00E00
E00E00
E00E00
E00E00
E00E00
E00E00
E00E00
FFFE00
FFFE00
FFFE00
000E00
000E00
000E00
000E00
000E00
000E00
FFFE00
FFFE00
FFFE00
ENDCHAR
STARTCHAR char254
ENCODING 254
SWIDTH 1383 0
DWIDTH 21 0
BBX 21 39 0 -6
BITMAP
000000
000000
000000
000000
000000
000000
000000
000000
000000
000000
000000
000000
E00000
E00000
E00000
E00000
E00000
E00000
FFFE00
FFFE00
FFFE00
E00E00
E00E00
E00E00
E00E00
E00E00
E00E00
E00E00
E00E00
E00E00
FFFE00
FFFE00
FFFE00
E00000
E00000
E00000
E00000
E00000
E00000
ENDCHAR
STARTCHAR char121
ENCODING 255
SWIDTH 1383 0
DWIDTH 21 0
BBX 21 39 0 -6
BITMAP
000000
000000
000000
000000
000000
000000
000000
000000
000000
1C7000
1C7000
1C7000
000000
000000
000000
E00E00
E00E00
E00E00
E00E00
E00E00
E00E00
E00E00
E00E00
E00E00
E00E00
E00E00
E00E00
FFFE00
FFFE00
FFFE00
000E00
000E00
000E00
000E00
000E00
000E00
FFFE00
FFFE00
FFFE00
ENDCHAR
ENDFONT
